<svg width="27" height="28" viewBox="0 0 27 28" fill="none" xmlns="http://www.w3.org/2000/svg">
<path fill-rule="evenodd" clip-rule="evenodd" d="M3.82253 5.20875L3.90314 5.12451C6.04472 2.98274 7.43934 2.41504 8.92737 3.27072C9.3554 3.51686 9.75668 3.8614 10.3023 4.41559L11.9761 6.15118C12.9006 7.15995 13.1107 8.12756 12.8097 9.26075L12.7682 9.41077L12.7222 9.55994L12.4984 10.2164C12.0195 11.6886 12.2195 12.5192 13.9234 14.2227C15.6953 15.9941 16.5224 16.139 18.1081 15.5849L18.3907 15.4867L18.7325 15.3757L18.8821 15.3342C20.0865 15.0128 21.104 15.2693 22.1831 16.3476L23.5317 17.6502L23.9286 18.0407C24.3688 18.4895 24.6597 18.8451 24.8745 19.221C25.7248 20.7086 25.1565 22.1024 22.9532 24.2975L22.7436 24.5099C22.4146 24.8269 22.1073 25.0541 21.6557 25.2685C20.8978 25.6283 20.0024 25.764 18.962 25.6193C16.3981 25.2627 13.1464 23.2398 9.02605 19.1205C8.69064 18.7852 8.36941 18.4564 8.06201 18.1339L7.4656 17.4974C1.87687 11.4254 1.38383 7.69545 3.67415 5.35614L3.82253 5.20875ZM8.95824 5.42333C8.59625 5.06645 8.33329 4.8489 8.10147 4.71558C7.58866 4.4207 7.035 4.54535 6.01033 5.42727L5.68837 5.7149C5.63221 5.76674 5.57476 5.82056 5.51598 5.87639L5.14679 6.23598L5.11353 6.27755L4.86324 6.529C4.2584 7.14679 3.9719 7.90079 4.21879 9.19749C4.6239 11.3253 6.47825 14.2118 10.2093 17.9419C14.097 21.8286 17.0591 23.6713 19.1965 23.9686C20.4425 24.1418 21.078 23.8401 21.7262 23.1761L22.2204 22.6773C22.4522 22.4347 22.6503 22.2149 22.8175 22.0141L23.0456 21.7266C23.6286 20.9501 23.6818 20.4843 23.4325 20.0482C23.3376 19.8822 23.1996 19.7003 22.9988 19.4779L22.7263 19.1901L22.565 19.0287L20.8636 17.3858C20.2951 16.8615 19.9065 16.7872 19.3166 16.9446L19.1463 16.9935L18.4416 17.2328C16.397 17.8931 14.922 17.5729 12.7499 15.4014C10.5003 13.1524 10.2365 11.6505 10.9902 9.48805L11.0386 9.34909L11.1723 8.94623L11.238 8.68944C11.3546 8.13059 11.2215 7.74094 10.6208 7.14008C10.596 7.11535 10.5684 7.08748 10.5383 7.05697L8.95824 5.42333Z" fill="#005231"/>
</svg>
