<svg width="28" height="28" viewBox="0 0 28 28" fill="none" xmlns="http://www.w3.org/2000/svg">
<path fill-rule="evenodd" clip-rule="evenodd" d="M13.6009 1.84514C14.0021 1.53307 14.5639 1.53307 14.9651 1.84514L24.9651 9.62292C25.2358 9.83342 25.3941 10.1571 25.3941 10.5V22.7222C25.3941 23.6063 25.0429 24.4541 24.4178 25.0792C23.7927 25.7043 22.9449 26.0555 22.0608 26.0555H6.50521C5.62115 26.0555 4.77331 25.7043 4.14819 25.0792C3.52306 24.4541 3.17188 23.6063 3.17188 22.7222V10.5C3.17188 10.1571 3.33018 9.83342 3.60083 9.62292L13.6009 1.84514ZM5.3941 11.0434V22.7222C5.3941 23.0169 5.51116 23.2995 5.71953 23.5079C5.92791 23.7162 6.21052 23.8333 6.50521 23.8333H22.0608C22.3554 23.8333 22.6381 23.7162 22.8464 23.5079C23.0548 23.2995 23.1719 23.0169 23.1719 22.7222V11.0434L14.283 4.12982L5.3941 11.0434Z" fill="#005231"/>
<path fill-rule="evenodd" clip-rule="evenodd" d="M9.84375 13.8333C9.84375 13.2196 10.3412 12.7222 10.9549 12.7222H17.6215C18.2352 12.7222 18.7326 13.2196 18.7326 13.8333V24.9444C18.7326 25.5581 18.2352 26.0555 17.6215 26.0555C17.0079 26.0555 16.5104 25.5581 16.5104 24.9444V14.9444H12.066V24.9444C12.066 25.5581 11.5685 26.0555 10.9549 26.0555C10.3412 26.0555 9.84375 25.5581 9.84375 24.9444V13.8333Z" fill="#005231"/>
</svg>
