<svg width="23" height="26" viewBox="0 0 23 26" fill="none" xmlns="http://www.w3.org/2000/svg">
<path d="M16.3067 4.46572C15.0369 3.38953 13.7289 2.27312 12.4051 0.953556L11.6506 0.204346L10.9099 0.95461C8.52678 3.34403 7.40085 7.01281 6.91196 9.21387C6.53775 8.63387 6.26007 7.99704 6.08974 7.32816L5.64212 5.60011L4.34053 6.8234C2.06011 8.96413 0.539477 11.0879 0.539477 14.489C0.518182 16.9422 1.31717 19.3321 2.80955 21.2793C4.30192 23.2264 6.40209 24.6191 8.77652 25.2361C9.49193 25.4101 10.2221 25.5164 10.9575 25.5536C11.1874 25.5827 11.4188 25.5978 11.6506 25.5991C11.7722 25.5991 11.8908 25.5885 12.0093 25.581C14.892 25.4943 17.6275 24.2877 19.635 22.2171C21.6425 20.1465 22.7641 17.3751 22.7617 14.4911C22.7617 9.94721 19.7702 7.40752 16.3067 4.46572ZM11.8623 23.4647C11.7564 23.4647 11.6506 23.4753 11.5384 23.4742C10.586 23.445 9.68211 23.0468 9.01784 22.3636C8.35359 21.6805 7.98093 20.7657 7.97863 19.8128C7.97863 18.4711 8.69821 17.8022 10.3268 16.416C10.7374 16.0667 11.1839 15.6869 11.6538 15.252C12.0654 15.6255 12.4654 15.9641 12.8347 16.2784C14.4707 17.6667 15.3246 18.4552 15.3246 19.8096C15.3228 20.7456 14.9634 21.6455 14.3197 22.325C13.6759 23.0045 12.7967 23.4123 11.8623 23.4647ZM17.1744 21.5906L17.1532 21.6054C17.3432 21.0268 17.4403 20.4218 17.4411 19.8128C17.4411 17.416 15.8686 16.0806 14.2051 14.6679C13.6157 14.1683 13.0072 13.652 12.3998 13.0445L11.6506 12.2965L10.9024 13.0445C10.2167 13.7292 9.54583 14.3007 8.95428 14.8044C7.29503 16.216 5.86117 17.4361 5.86117 19.8128C5.86343 20.448 5.97069 21.0783 6.17863 21.6784C5.0771 20.8326 4.186 19.7436 3.57492 18.4965C2.96383 17.2494 2.64929 15.8778 2.65588 14.489C2.63847 12.6321 3.35719 10.8438 4.65482 9.51546C4.87833 9.96892 5.14331 10.4007 5.44636 10.8054C5.66769 11.1041 5.97158 11.3314 6.32057 11.4595C6.66956 11.5876 7.04839 11.6107 7.41037 11.526C7.77861 11.4441 8.11545 11.2577 8.38061 10.9894C8.64578 10.721 8.82804 10.382 8.90561 10.0128C9.3487 7.58069 10.307 5.27151 11.7162 3.24032C12.8326 4.29852 13.9385 5.23503 14.9363 6.08265C18.2506 8.89747 20.6506 10.9313 20.6506 14.4953C20.6531 15.8654 20.341 17.2176 19.7381 18.4478C19.1352 19.6781 18.2577 20.7532 17.1734 21.5906H17.1744Z" fill="#FF0606"/>
</svg>
