<svg width="24" height="11" viewBox="0 0 24 11" fill="none" xmlns="http://www.w3.org/2000/svg">
<path d="M10.4605 9.17729C10.4379 8.75783 10.2392 8.36236 9.90557 8.07277C9.57189 7.78318 9.12881 7.62166 8.66808 7.62166C8.20735 7.62166 7.76426 7.78318 7.43059 8.07277C7.09691 8.36236 6.89821 8.75783 6.87563 9.17729C6.8694 9.3921 6.90964 9.60593 6.99407 9.80657C7.0785 10.0072 7.20546 10.1907 7.3677 10.3466C7.52994 10.5026 7.72428 10.6278 7.93963 10.7153C8.15497 10.8027 8.38711 10.8507 8.62278 10.8563C9.09874 10.8678 9.5602 10.7065 9.90566 10.4078C10.2511 10.1091 10.4523 9.69764 10.4648 9.26379C10.4648 9.2402 10.4648 9.20874 10.4605 9.17729ZM8.32512 9.87722C8.20957 9.82683 8.11144 9.74846 8.04145 9.65068C7.97146 9.5529 7.93229 9.43947 7.92823 9.32278C7.92221 9.27443 7.92221 9.22563 7.92823 9.17729C7.95186 9.01577 8.03902 8.86758 8.17352 8.76024C8.30801 8.65291 8.48069 8.59374 8.65945 8.59374C8.83821 8.59374 9.01089 8.65291 9.14538 8.76024C9.27988 8.86758 9.36704 9.01577 9.39066 9.17729C9.39376 9.20868 9.39376 9.24026 9.39066 9.27166C9.38895 9.38558 9.35588 9.49728 9.29449 9.59651C9.23309 9.69575 9.14534 9.77934 9.03927 9.83961C8.93321 9.89989 8.81224 9.93492 8.68746 9.94149C8.56268 9.94806 8.43809 9.92596 8.32512 9.87722ZM21.8666 9.17729C21.844 8.75783 21.6453 8.36236 21.3117 8.07277C20.978 7.78318 20.5349 7.62166 20.0742 7.62166C19.6134 7.62166 19.1704 7.78318 18.8367 8.07277C18.503 8.36236 18.3043 8.75783 18.2817 9.17729C18.2755 9.3921 18.3157 9.60593 18.4002 9.80657C18.4846 10.0072 18.6116 10.1907 18.7738 10.3466C18.936 10.5026 19.1304 10.6278 19.3457 10.7153C19.5611 10.8027 19.7932 10.8507 20.0289 10.8563C20.5048 10.8678 20.9663 10.7065 21.3118 10.4078C21.6572 10.1091 21.8584 9.69764 21.8709 9.26379C21.8709 9.2402 21.8709 9.20874 21.8666 9.17729ZM19.7312 9.87722C19.6157 9.82683 19.5175 9.74846 19.4476 9.65068C19.3776 9.5529 19.3384 9.43947 19.3343 9.32278C19.3283 9.27443 19.3283 9.22563 19.3343 9.17729C19.358 9.01577 19.4451 8.86758 19.5796 8.76024C19.7141 8.65291 19.8868 8.59374 20.0655 8.59374C20.2443 8.59374 20.417 8.65291 20.5515 8.76024C20.686 8.86758 20.7731 9.01577 20.7968 9.17729C20.7999 9.20868 20.7999 9.24026 20.7968 9.27166C20.7951 9.38558 20.762 9.49728 20.7006 9.59651C20.6392 9.69575 20.5514 9.77934 20.4454 9.83961C20.3393 9.89989 20.2183 9.93492 20.0936 9.94149C19.9688 9.94806 19.8442 9.92596 19.7312 9.87722ZM9.17497 3.80981C9.0628 4.1375 8.92907 4.47174 8.77377 4.81253H9.17497C9.15637 4.47851 9.15637 4.14384 9.17497 3.80981Z" fill="#242424"/>
<path d="M23.7024 5.4732L22.542 4.0576C22.4275 3.91437 22.2776 3.79774 22.1045 3.71712C21.9314 3.63651 21.7398 3.5942 21.5454 3.5936H20.0355C20.0052 3.5936 19.9751 3.58809 19.947 3.57737C19.919 3.56665 19.8936 3.55094 19.8723 3.53117C19.851 3.5114 19.8343 3.48796 19.8231 3.46222C19.8118 3.43648 19.8063 3.40896 19.8069 3.38126L19.8457 1.98532C19.8674 1.82731 19.8527 1.66692 19.8027 1.51434C19.7527 1.36177 19.6685 1.22034 19.5553 1.09904C19.4421 0.977747 19.3025 0.879239 19.1453 0.809777C18.9881 0.740315 18.8167 0.701418 18.6421 0.695557H5.77792C5.46672 0.70295 5.16991 0.816557 4.94623 1.0139C4.72254 1.21123 4.58828 1.47792 4.57001 1.76119L4.49667 2.5201H2.65461C2.54593 2.51979 2.44113 2.55687 2.36115 2.62394C2.28117 2.69101 2.23191 2.78312 2.22321 2.88187C2.22321 2.98616 2.26866 3.08617 2.34957 3.15992C2.43047 3.23366 2.5402 3.27509 2.65461 3.27509H4.38019L4.28097 4.32499H1.59769C1.48901 4.32467 1.38421 4.36176 1.30423 4.42883C1.22425 4.4959 1.17499 4.58801 1.16629 4.68675C1.16629 4.79104 1.21175 4.89106 1.29265 4.9648C1.37355 5.03855 1.48328 5.07997 1.59769 5.07997H4.2292L4.16018 6.20066H0.540771C0.432093 6.20034 0.327289 6.23742 0.247309 6.30449C0.167329 6.37156 0.118069 6.46368 0.109375 6.56242C0.109375 6.66671 0.154826 6.76673 0.235728 6.84047C0.31663 6.91421 0.426357 6.95564 0.540771 6.95564H4.05665L3.89272 8.68975C3.88557 8.747 3.89117 8.80498 3.90917 8.86021C3.92716 8.91545 3.9572 8.96681 3.99747 9.01122C4.03774 9.05564 4.08742 9.0922 4.14354 9.11871C4.19967 9.14523 4.26108 9.16116 4.32411 9.16555H6.08852C6.14607 9.16587 6.20171 9.14676 6.24473 9.11191C6.28774 9.07706 6.31508 9.02893 6.32147 8.9768C6.39784 8.46933 6.67324 8.00423 7.09674 7.66754C7.52024 7.33086 8.06318 7.14536 8.62513 7.14536C9.18708 7.14536 9.73002 7.33086 10.1535 7.66754C10.577 8.00423 10.8524 8.46933 10.9288 8.9768C10.9361 9.02859 10.9637 9.07624 11.0065 9.11093C11.0493 9.14562 11.1044 9.16502 11.1617 9.16555H17.5464C17.6039 9.16587 17.6596 9.14676 17.7026 9.11191C17.7456 9.07706 17.773 9.02893 17.7793 8.9768C17.8557 8.46933 18.1311 8.00423 18.5546 7.66754C18.9781 7.33086 19.521 7.14536 20.083 7.14536C20.6449 7.14536 21.1879 7.33086 21.6114 7.66754C22.0349 8.00423 22.3103 8.46933 22.3867 8.9768C22.3939 9.02859 22.4215 9.07624 22.4644 9.11093C22.5072 9.14562 22.5623 9.16502 22.6196 9.16555H23.6377C23.6853 9.16402 23.7321 9.15396 23.7754 9.13594C23.8188 9.11792 23.8578 9.09229 23.8902 9.06052C23.9227 9.02875 23.9479 8.99145 23.9646 8.95077C23.9812 8.91009 23.9889 8.86683 23.9871 8.82344V6.25571C23.9874 5.97368 23.8876 5.69915 23.7024 5.4732ZM7.11093 5.63442H6.52854L7.00739 3.27509H8.19804L8.09451 3.78234H7.49056L7.40428 4.21489H7.93489L7.83567 4.70642H7.30937L7.11093 5.63442ZM9.22477 5.63442V5.2412H8.60356L8.42237 5.63442H7.80548L8.97456 3.27509H9.63459L9.84166 5.63442H9.22477ZM11.6578 3.84133C11.5404 3.76694 11.4035 3.72217 11.261 3.71156C11.1965 3.70899 11.133 3.72555 11.0798 3.75875C11.0557 3.77449 11.0354 3.7944 11.0198 3.81735C11.0043 3.8403 10.9939 3.86582 10.9892 3.89245C10.969 3.99206 11.0438 4.10348 11.2135 4.22668C11.3296 4.31461 11.4287 4.41961 11.5069 4.53733C11.6006 4.67449 11.6315 4.83966 11.5931 4.9974C11.5537 5.19862 11.4338 5.37936 11.2566 5.50465C11.1023 5.61603 10.9158 5.68422 10.7198 5.70097C10.5238 5.71772 10.3267 5.68231 10.1523 5.59903L10.2644 5.04852C10.39 5.13419 10.5395 5.18597 10.6958 5.19794C10.7628 5.20008 10.8285 5.18058 10.8813 5.14289C10.9322 5.10555 10.966 5.05229 10.9762 4.99347C10.9861 4.94752 10.9769 4.89987 10.9504 4.85977C10.9099 4.8036 10.8604 4.75324 10.8037 4.71035C10.6572 4.60089 10.5343 4.46755 10.4413 4.31713C10.3772 4.19483 10.3575 4.05708 10.3852 3.9239C10.4214 3.7285 10.5331 3.55136 10.7001 3.42451C10.8625 3.29586 11.0718 3.22714 11.2868 3.23183C11.4511 3.23163 11.6133 3.26524 11.7614 3.33014L11.6578 3.84133ZM13.4611 3.82167H13.0556L12.6846 5.64621H12.0892L12.4602 3.82167H12.0547L12.1626 3.28295H13.5689L13.4611 3.82167ZM16.0494 4.65923C16.0036 5.04116 15.8761 5.41121 15.6741 5.74845C15.4694 6.08856 15.1939 6.38906 14.8631 6.6332C14.787 6.6894 14.6993 6.73121 14.6052 6.75619C14.5112 6.78117 14.4126 6.78882 14.3152 6.77869H14.2635C14.1264 6.75412 13.9997 6.69478 13.898 6.60748C13.7963 6.52019 13.7237 6.40849 13.6885 6.28525C13.6534 6.162 13.6571 6.03222 13.6993 5.91082C13.7415 5.78942 13.8204 5.68134 13.927 5.59903L13.9744 5.56757C14.1716 5.44505 14.3402 5.28815 14.4705 5.10593C14.6008 4.9237 14.6903 4.71976 14.7337 4.50587C14.8102 4.05423 14.7028 3.59268 14.4317 3.20824C14.2044 2.86161 13.8798 2.57654 13.4913 2.38248C12.7622 2.02742 11.9117 1.94019 11.1143 2.13868C11.4164 1.91526 11.7638 1.74824 12.1367 1.64715C12.5156 1.54498 12.9128 1.51158 13.3058 1.54885C13.7033 1.58817 14.0887 1.69769 14.4403 1.87129C14.7952 2.04914 15.1088 2.2882 15.3635 2.57516C15.6193 2.8563 15.814 3.17925 15.9373 3.52675C16.0586 3.88934 16.1011 4.27001 16.0624 4.64743L16.0494 4.65923ZM22.762 5.9136H20.1606C20.1115 5.9136 20.0643 5.89579 20.0295 5.86408C19.9947 5.83237 19.9751 5.78936 19.9751 5.74452V4.58845C19.9751 4.529 20.0011 4.47199 20.0472 4.42996C20.0933 4.38793 20.1558 4.36431 20.221 4.36431H21.5454C21.584 4.36416 21.622 4.37226 21.6565 4.38797C21.6909 4.40368 21.7209 4.42656 21.7439 4.45475L22.8396 5.80743C22.8436 5.81752 22.845 5.82829 22.8438 5.83895C22.8425 5.8496 22.8386 5.85986 22.8324 5.86895C22.8262 5.87804 22.8178 5.88572 22.8078 5.89141C22.7978 5.8971 22.7866 5.90066 22.7749 5.90181L22.762 5.9136Z" fill="#242424"/>
</svg>
