<svg width="139" height="31" viewBox="0 0 139 31" fill="none" xmlns="http://www.w3.org/2000/svg">
<path d="M126.39 0C119.893 0 113.998 2.59001 109.684 6.79628C108.786 7.67424 107.952 8.62006 107.198 9.63371C104.221 13.6245 102.461 18.573 102.461 23.9326V30.7768H109.305C117.909 30.7768 125.456 26.2353 129.666 19.4151C129.674 19.4071 129.674 19.4031 129.678 19.3951C130.368 18.2777 130.967 17.1004 131.47 15.8713H131.482C132.033 14.4226 132.452 12.8942 132.771 11.5533V11.5453C133.07 10.0288 133.23 8.45643 133.23 6.85215V0H126.386H126.39ZM127.95 12.6906C127.463 13.8559 126.884 14.9734 126.222 16.0309C122 22.8272 114.473 27.3527 105.885 27.3527C105.885 21.5302 107.964 16.1985 111.416 12.0481C111.883 11.4854 112.374 10.9467 112.889 10.4319C113.272 10.0487 113.667 9.6816 114.074 9.32642C118.28 5.65093 123.784 3.42408 129.81 3.42408C129.81 6.70848 129.147 9.84123 127.946 12.6906H127.95Z" fill="#55BB79"/>
<path d="M138.301 13.8955C138.193 14.2786 135.296 16.1064 131.484 15.8709C132.035 14.4223 132.454 12.8938 132.773 11.5529C132.729 11.7684 132.682 11.9879 132.634 12.2034L135.615 11.0381L138.301 13.8955Z" fill="#F4C35C"/>
<path d="M3.86705 19.0163H11.0863V26.8861H14.9414V8.65625H11.0863V15.7997H3.86705V8.65625H0V26.8861H3.86705V19.0163Z" fill="white"/>
<path d="M30.7515 26.8863V17.5958C30.7515 15.9316 30.2527 14.6945 29.255 13.8804C28.2573 13.0662 26.8246 12.6592 24.953 12.6592C23.9712 12.6592 23.0214 12.7709 22.1036 12.9944C21.1857 13.2179 20.3556 13.5252 19.6173 13.9163L20.8784 16.4863C21.5249 16.195 22.1754 15.9556 22.8219 15.764C23.4684 15.5724 24.1309 15.4767 24.8053 15.4767C25.4797 15.4767 26.0185 15.6483 26.4016 15.9875C26.7847 16.3267 26.9763 16.8654 26.9763 17.5958V18.2063L24.5579 18.2822C22.4787 18.358 20.9223 18.7451 19.8807 19.4475C18.8431 20.1498 18.3203 21.2393 18.3203 22.7199C18.3203 23.7256 18.5079 24.5557 18.883 25.2061C19.2581 25.8606 19.769 26.3435 20.4234 26.6588C21.0779 26.9741 21.8122 27.1337 22.6383 27.1337C23.4125 27.1337 24.067 27.0579 24.6098 26.9102C25.1485 26.7625 25.6274 26.5271 26.0424 26.2118C26.4575 25.8966 26.8645 25.4895 27.2636 24.9906H27.3634L28.0977 26.8863H30.7555H30.7515ZM26.9723 21.5746C26.9723 22.4645 26.6929 23.1509 26.1302 23.6338C25.5675 24.1167 24.8811 24.3561 24.067 24.3561C23.5203 24.3561 23.0733 24.2324 22.7341 23.989C22.3949 23.7455 22.2233 23.3305 22.2233 22.7478C22.2233 22.0814 22.4627 21.5466 22.9416 21.1396C23.4205 20.7325 24.2745 20.513 25.5037 20.4771L26.9763 20.4292V21.5746H26.9723Z" fill="white"/>
<path d="M41.8866 26.8862L47.1983 12.9425H43.2195L40.5377 20.8881C40.378 21.355 40.2543 21.8339 40.1586 22.3327C40.0628 22.8316 40.0029 23.3025 39.979 23.7415H39.8792C39.8473 23.3344 39.7874 22.8715 39.6996 22.3567C39.6118 21.8419 39.4921 21.351 39.3444 20.8841L36.6507 12.9385H32.6719L37.9836 26.8822H41.8866V26.8862Z" fill="white"/>
<path d="M55.5072 27.137C56.5807 27.137 57.4906 27.0572 58.2448 26.9016C58.9991 26.7419 59.7174 26.4945 60.4078 26.1553V23.2141C59.6256 23.5812 58.8674 23.8526 58.1251 24.0362C57.3868 24.2198 56.5687 24.3115 55.6828 24.3115C54.6093 24.3115 53.7712 24.0043 53.1686 23.3937C52.566 22.7831 52.2427 21.941 52.2028 20.8675H61.194V19.0238C61.194 17.6669 60.9386 16.5216 60.4318 15.5837C59.925 14.6459 59.2066 13.9276 58.2728 13.4327C57.3429 12.9379 56.2335 12.6904 54.9445 12.6904C53.6555 12.6904 52.4782 12.9618 51.4885 13.5085C50.4988 14.0513 49.7285 14.8694 49.1738 15.9509C48.6191 17.0364 48.3438 18.3932 48.3438 20.0215C48.3438 21.6497 48.651 22.9547 49.2616 24.0122C49.8722 25.0698 50.7143 25.852 51.7918 26.3708C52.8693 26.8856 54.1064 27.145 55.5032 27.145L55.5072 27.137ZM53.1287 16.0985C53.6156 15.6236 54.2261 15.3882 54.9684 15.3882C55.567 15.3882 56.0579 15.5159 56.445 15.7753C56.8321 16.0347 57.1234 16.3819 57.319 16.8209C57.5145 17.2599 57.6143 17.7627 57.6263 18.3294H52.2906C52.3664 17.3157 52.6458 16.5695 53.1327 16.0985H53.1287Z" fill="white"/>
<path d="M72.1933 19.423C71.6107 19.0678 70.9243 18.7326 70.1341 18.4054C69.32 18.0741 68.7014 17.7988 68.2824 17.5873C67.8633 17.3758 67.58 17.1802 67.4363 17.0086C67.2927 16.833 67.2168 16.6335 67.2168 16.41C67.2168 16.1027 67.3565 15.8752 67.6399 15.7236C67.9232 15.5759 68.3422 15.5001 68.9009 15.5001C69.5315 15.5001 70.154 15.5959 70.7646 15.7874C71.3752 15.979 72.0257 16.2224 72.7161 16.5217L73.8615 13.7801C73.0314 13.397 72.2213 13.1176 71.4351 12.946C70.6489 12.7744 69.8228 12.6826 68.9608 12.6826C67.2807 12.6826 65.9398 13.0099 64.9381 13.6604C63.9364 14.3148 63.4336 15.2846 63.4336 16.5736C63.4336 17.3638 63.5693 18.0143 63.8407 18.5251C64.112 19.0359 64.5271 19.4789 65.0858 19.854C65.6445 20.2292 66.3628 20.5963 67.2368 20.9635C68.1427 21.3466 68.8092 21.6539 69.2322 21.8933C69.6552 22.1328 69.9306 22.3403 70.0623 22.5278C70.19 22.7154 70.2538 22.9269 70.2538 23.1584C70.2538 23.5175 70.0942 23.8049 69.7749 24.0244C69.4557 24.2439 68.9249 24.3556 68.1866 24.3556C67.5281 24.3556 66.7659 24.2439 65.8999 24.0244C65.0299 23.8049 64.2198 23.5255 63.4615 23.1823V26.3231C64.1679 26.6144 64.8703 26.8219 65.5647 26.9456C66.2591 27.0693 67.0931 27.1332 68.0669 27.1332C69.3798 27.1332 70.4773 26.9656 71.3593 26.6264C72.2412 26.2911 72.9037 25.7963 73.3467 25.1418C73.7896 24.4873 74.0131 23.6892 74.0131 22.7393C74.0131 21.9173 73.8535 21.2468 73.5382 20.724C73.2229 20.2052 72.772 19.7662 72.1933 19.415V19.423Z" fill="white"/>
<path d="M85.2479 26.4983V23.6689C84.8568 23.7926 84.4657 23.8964 84.0706 23.9802C83.6756 24.064 83.2685 24.1039 82.8535 24.1039C82.3546 24.1039 81.9515 23.9722 81.6482 23.7128C81.3449 23.4494 81.1933 23.0543 81.1933 22.5235V15.8031H85.0963V12.9457H81.1933V9.97656H78.7629L77.6655 12.9178L75.5703 14.1908V15.7991H77.3901V22.5195C77.3901 23.7168 77.5777 24.6506 77.9568 25.3211C78.3359 25.9915 78.8547 26.4584 79.5172 26.7298C80.1796 27.0012 80.9259 27.1369 81.756 27.1369C82.4703 27.1369 83.1288 27.077 83.7314 26.9573C84.334 26.8376 84.8409 26.6859 85.2479 26.5023V26.4983Z" fill="white"/>
<path d="M96.1836 24.9906L96.9179 26.8863H99.5758V17.5958C99.5758 15.9316 99.0769 14.6945 98.0792 13.8804C97.0815 13.0662 95.6489 12.6592 93.7772 12.6592C92.7955 12.6592 91.8457 12.7709 90.9278 12.9944C90.0099 13.2179 89.1798 13.5252 88.4415 13.9163L89.7026 16.4863C90.3491 16.195 90.9996 15.9556 91.6461 15.764C92.2926 15.5724 92.9551 15.4767 93.6295 15.4767C94.304 15.4767 94.8427 15.6483 95.2258 15.9875C95.6089 16.3267 95.8005 16.8654 95.8005 17.5958V18.2063L93.3821 18.2822C91.3029 18.358 89.7465 18.7451 88.7049 19.4475C87.6673 20.1498 87.1445 21.2393 87.1445 22.7199C87.1445 23.7256 87.3321 24.5557 87.7072 25.2061C88.0824 25.8606 88.5932 26.3435 89.2477 26.6588C89.9022 26.9741 90.6365 27.1337 91.4625 27.1337C92.2368 27.1337 92.8912 27.0579 93.434 26.9102C93.9727 26.7625 94.4516 26.5271 94.8667 26.2118C95.2817 25.8966 95.6888 25.4895 96.0878 24.9906H96.1876H96.1836ZM95.7965 21.5746C95.7965 22.4645 95.5172 23.1509 94.9545 23.6338C94.3918 24.1167 93.7054 24.3561 92.8912 24.3561C92.3445 24.3561 91.8975 24.2324 91.5583 23.989C91.2191 23.7455 91.0475 23.3305 91.0475 22.7478C91.0475 22.0814 91.2869 21.5466 91.7658 21.1396C92.2447 20.7325 93.0988 20.513 94.3279 20.4771L95.8005 20.4292V21.5746H95.7965Z" fill="white"/>
</svg>
