<svg width="33" height="33" viewBox="0 0 33 33" fill="none" xmlns="http://www.w3.org/2000/svg">
<path fill-rule="evenodd" clip-rule="evenodd" d="M6.7081 3.97466C7.74535 3.54397 8.85741 3.32227 9.98051 3.32227C11.1036 3.32227 12.2157 3.54397 13.2529 3.97466C14.2902 4.40536 15.2322 5.03657 16.025 5.83211L16.0294 5.83656L16.1072 5.91538L16.185 5.83657L16.1894 5.83211C16.9822 5.03657 17.9242 4.40536 18.9614 3.97466C19.9987 3.54397 21.1107 3.32227 22.2338 3.32227C23.357 3.32227 24.469 3.54397 25.5063 3.97466C26.5431 4.40521 27.4849 5.03614 28.2775 5.83129C31.6708 9.22554 31.7463 14.8377 27.7254 18.934L27.7167 18.9428L17.05 29.6094C16.7999 29.8595 16.4608 29.9999 16.1072 29.9999C15.7536 29.9999 15.4144 29.8595 15.1644 29.6094L4.48896 18.934C0.468028 14.8378 0.543522 9.22553 3.93689 5.83128C4.7295 5.03613 5.67122 4.40521 6.7081 3.97466ZM9.98051 5.98893C9.20838 5.98893 8.44384 6.14135 7.73073 6.43746C7.01763 6.73356 6.36999 7.16752 5.82496 7.71445L5.82332 7.71609C3.56517 9.97424 3.29352 13.9056 6.38787 17.0617L16.1072 26.781L25.8265 17.0617C28.9208 13.9056 28.6492 9.97424 26.391 7.71609L26.3894 7.71445C25.8444 7.16752 25.1967 6.73356 24.4836 6.43746C23.7705 6.14135 23.006 5.98893 22.2338 5.98893C21.4617 5.98893 20.6972 6.14135 19.9841 6.43746C19.2719 6.73317 18.625 7.16638 18.0804 7.71229C18.0797 7.71301 18.079 7.71373 18.0783 7.71445L17.0561 8.74998C16.8055 9.00376 16.4638 9.14661 16.1072 9.14661C15.7506 9.14661 15.4088 9.00376 15.1583 8.74998L14.1361 7.71445C14.1354 7.71373 14.1346 7.71301 14.1339 7.71229C13.5893 7.16638 12.9425 6.73317 12.2303 6.43746C11.5172 6.14135 10.7526 5.98893 9.98051 5.98893Z" fill="#253D4E"/>
</svg>
