<svg width="33" height="32" viewBox="0 0 33 32" fill="none" xmlns="http://www.w3.org/2000/svg">
<path fill-rule="evenodd" clip-rule="evenodd" d="M3.33594 3.99996C3.33594 3.26358 3.93289 2.66663 4.66927 2.66663H14.0026C14.739 2.66663 15.3359 3.26358 15.3359 3.99996V13.3333C15.3359 14.0697 14.739 14.6666 14.0026 14.6666H4.66927C3.93289 14.6666 3.33594 14.0697 3.33594 13.3333V3.99996ZM6.0026 5.33329V12H12.6693V5.33329H6.0026Z" fill="white"/>
<path fill-rule="evenodd" clip-rule="evenodd" d="M18 3.99996C18 3.26358 18.597 2.66663 19.3333 2.66663H28.6667C29.403 2.66663 30 3.26358 30 3.99996V13.3333C30 14.0697 29.403 14.6666 28.6667 14.6666H19.3333C18.597 14.6666 18 14.0697 18 13.3333V3.99996ZM20.6667 5.33329V12H27.3333V5.33329H20.6667Z" fill="white"/>
<path fill-rule="evenodd" clip-rule="evenodd" d="M18 18.6667C18 17.9303 18.597 17.3334 19.3333 17.3334H28.6667C29.403 17.3334 30 17.9303 30 18.6667V28C30 28.7364 29.403 29.3334 28.6667 29.3334H19.3333C18.597 29.3334 18 28.7364 18 28V18.6667ZM20.6667 20V26.6667H27.3333V20H20.6667Z" fill="white"/>
<path fill-rule="evenodd" clip-rule="evenodd" d="M3.33594 18.6667C3.33594 17.9303 3.93289 17.3334 4.66927 17.3334H14.0026C14.739 17.3334 15.3359 17.9303 15.3359 18.6667V28C15.3359 28.7364 14.739 29.3334 14.0026 29.3334H4.66927C3.93289 29.3334 3.33594 28.7364 3.33594 28V18.6667ZM6.0026 20V26.6667H12.6693V20H6.0026Z" fill="white"/>
</svg>
