<svg width="28" height="28" viewBox="0 0 28 28" fill="none" xmlns="http://www.w3.org/2000/svg">
<path fill-rule="evenodd" clip-rule="evenodd" d="M24.721 6.28207C24.9974 6.49219 25.1597 6.81944 25.1597 7.16666V20.5C25.1597 20.837 25.0068 21.1558 24.7439 21.3667C24.481 21.5776 24.1366 21.6578 23.8076 21.5846L3.80758 17.1402C3.2992 17.0272 2.9375 16.5763 2.9375 16.0556V12.7222C2.9375 12.2231 3.27032 11.7852 3.75123 11.6516L23.7512 6.09609C24.0858 6.00316 24.4445 6.07196 24.721 6.28207ZM5.15972 13.5668V15.1643L22.9375 19.1149V8.62849L5.15972 13.5668Z" fill="#253D4E"/>
<path fill-rule="evenodd" clip-rule="evenodd" d="M7.45663 16.3178C8.04819 16.4809 8.39545 17.0928 8.23226 17.6843C8.15433 17.9668 8.13281 18.2619 8.16891 18.5527C8.20502 18.8435 8.29806 19.1244 8.4427 19.3792C8.58735 19.6341 8.78078 19.8579 9.01194 20.038C9.2431 20.2181 9.50748 20.3509 9.78997 20.4289C10.0725 20.5068 10.3675 20.5283 10.6583 20.4922C10.9491 20.4561 11.23 20.3631 11.4848 20.2184C11.7397 20.0738 11.9636 19.8803 12.1437 19.6492C12.3238 19.418 12.4566 19.1536 12.5345 18.8712C12.6977 18.2796 13.3095 17.9323 13.9011 18.0955C14.4926 18.2587 14.8399 18.8706 14.6767 19.4621C14.5212 20.0259 14.2561 20.5536 13.8967 21.0149C13.5372 21.4763 13.0904 21.8624 12.5817 22.1511C12.0731 22.4398 11.5126 22.6254 10.9322 22.6975C10.3517 22.7696 9.76282 22.7266 9.19901 22.5711C8.63521 22.4155 8.10755 22.1505 7.64618 21.791C7.18481 21.4316 6.79876 20.9848 6.51007 20.4761C6.22137 19.9675 6.03569 19.4069 5.96363 18.8265C5.89156 18.2461 5.93452 17.6572 6.09005 17.0934C6.25324 16.5018 6.86508 16.1546 7.45663 16.3178Z" fill="#253D4E"/>
</svg>
