<svg width="33" height="33" viewBox="0 0 33 33" fill="none" xmlns="http://www.w3.org/2000/svg">
<path fill-rule="evenodd" clip-rule="evenodd" d="M14.8828 6.00004C9.72815 6.00004 5.54948 10.1787 5.54948 15.3334C5.54948 20.488 9.72815 24.6667 14.8828 24.6667C20.0375 24.6667 24.2161 20.488 24.2161 15.3334C24.2161 10.1787 20.0375 6.00004 14.8828 6.00004ZM2.88281 15.3334C2.88281 8.70596 8.25539 3.33337 14.8828 3.33337C21.5102 3.33337 26.8828 8.70596 26.8828 15.3334C26.8828 21.9608 21.5102 27.3334 14.8828 27.3334C8.25539 27.3334 2.88281 21.9608 2.88281 15.3334Z" fill="white"/>
<path fill-rule="evenodd" clip-rule="evenodd" d="M21.4765 21.9239C21.9972 21.4032 22.8414 21.4032 23.3621 21.9239L29.1621 27.7239C29.6828 28.2446 29.6828 29.0888 29.1621 29.6095C28.6414 30.1302 27.7972 30.1302 27.2765 29.6095L21.4765 23.8095C20.9558 23.2888 20.9558 22.4446 21.4765 21.9239Z" fill="white"/>
</svg>
