<svg width="33" height="33" viewBox="0 0 33 33" fill="none" xmlns="http://www.w3.org/2000/svg">
<g clip-path="url(#clip0_3297_2515)">
<path fill-rule="evenodd" clip-rule="evenodd" d="M9.78125 28.3332C9.78125 26.8604 10.9752 25.6665 12.4479 25.6665C13.9207 25.6665 15.1146 26.8604 15.1146 28.3332C15.1146 29.8059 13.9207 30.9998 12.4479 30.9998C10.9752 30.9998 9.78125 29.8059 9.78125 28.3332Z" fill="#253D4E"/>
<path fill-rule="evenodd" clip-rule="evenodd" d="M24.4453 28.3332C24.4453 26.8604 25.6392 25.6665 27.112 25.6665C28.5847 25.6665 29.7786 26.8604 29.7786 28.3332C29.7786 29.8059 28.5847 30.9998 27.112 30.9998C25.6392 30.9998 24.4453 29.8059 24.4453 28.3332Z" fill="#253D4E"/>
<path fill-rule="evenodd" clip-rule="evenodd" d="M0.445312 1.66652C0.445312 0.930144 1.04227 0.333191 1.77865 0.333191H7.11198C7.74748 0.333191 8.29466 0.781705 8.41938 1.40485L9.53922 6.99986H31.112C31.5093 6.99986 31.886 7.17709 32.1393 7.48326C32.3926 7.78943 32.4961 8.19263 32.4217 8.58296L30.2865 19.7796C30.1036 20.7004 29.6026 21.5275 28.8713 22.1162C28.1437 22.702 27.2341 23.0145 26.3004 22.9999H13.3635C12.4298 23.0145 11.5203 22.702 10.7926 22.1162C10.0616 21.5278 9.56083 20.7011 9.37775 19.7807C9.37768 19.7804 9.37783 19.7811 9.37775 19.7807L7.15037 8.65213C7.14133 8.61532 7.13382 8.5779 7.12791 8.53996L6.01907 2.99986H1.77865C1.04227 2.99986 0.445312 2.4029 0.445312 1.66652ZM10.073 9.66652L11.9931 19.2601C12.0541 19.567 12.221 19.8427 12.4648 20.039C12.7086 20.2352 13.0136 20.3394 13.3264 20.3334L13.352 20.3332H26.312L26.3375 20.3334C26.6504 20.3394 26.9554 20.2352 27.1992 20.039C27.4418 19.8437 27.6083 19.5696 27.67 19.2644L29.5003 9.66652H10.073Z" fill="#253D4E"/>
</g>
<defs>
<clipPath id="clip0_3297_2515">
<rect width="32" height="32" fill="white" transform="translate(0.445312 0.333191)"/>
</clipPath>
</defs>
</svg>
