<svg width="24" height="25" viewBox="0 0 24 25" fill="none" xmlns="http://www.w3.org/2000/svg">
<path fill-rule="evenodd" clip-rule="evenodd" d="M22.7071 1.95952C23.0976 2.35004 23.0976 2.98321 22.7071 3.37373L11.7071 14.3737C11.3166 14.7643 10.6834 14.7643 10.2929 14.3737C9.90237 13.9832 9.90237 13.35 10.2929 12.9595L21.2929 1.95952C21.6834 1.56899 22.3166 1.56899 22.7071 1.95952Z" fill="#005231"/>
<path fill-rule="evenodd" clip-rule="evenodd" d="M22.7071 1.95955C22.9788 2.23119 23.0708 2.63442 22.9439 2.997L15.9439 22.997C15.8084 23.384 15.4504 23.6491 15.0408 23.6658C14.6311 23.6825 14.2527 23.4475 14.0862 23.0728L10.2424 14.4243L1.59387 10.5805C1.21919 10.4139 0.984122 10.0356 1.00084 9.62589C1.01755 9.21621 1.28265 8.85825 1.66965 8.7228L21.6697 1.7228C22.0322 1.59589 22.4355 1.68791 22.7071 1.95955ZM4.71108 9.77726L11.4061 12.7528C11.6324 12.8534 11.8133 13.0343 11.9138 13.2605L14.8894 19.9556L20.37 4.29663L4.71108 9.77726Z" fill="#005231"/>
</svg>
