<svg width="26" height="26" viewBox="0 0 26 26" fill="none" xmlns="http://www.w3.org/2000/svg">
<g clip-path="url(#clip0_3553_2040)">
<path d="M21.8641 9.23676C20.751 4.33914 16.4788 2.13416 12.7261 2.13416C12.7261 2.13416 12.7261 2.13416 12.7155 2.13416C8.97336 2.13416 4.69059 4.32854 3.5775 9.22616C2.33719 14.6962 5.68708 19.3288 8.71894 22.2441C9.84264 23.3254 11.2844 23.866 12.7261 23.866C14.1678 23.866 15.6095 23.3254 16.7226 22.2441C19.7545 19.3288 23.1044 14.7068 21.8641 9.23676ZM12.7261 14.5478C10.8815 14.5478 9.3868 13.0531 9.3868 11.2085C9.3868 9.36397 10.8815 7.86924 12.7261 7.86924C14.5706 7.86924 16.0654 9.36397 16.0654 11.2085C16.0654 13.0531 14.5706 14.5478 12.7261 14.5478Z" fill="#01BE72"/>
</g>
<defs>
<clipPath id="clip0_3553_2040">
<rect width="25.4422" height="25.4422" fill="white" transform="translate(0 0.278931)"/>
</clipPath>
</defs>
</svg>
