<svg width="13" height="12" viewBox="0 0 13 12" fill="none" xmlns="http://www.w3.org/2000/svg">
<path d="M9.92919 7.33958C9.77234 7.49158 9.70028 7.7114 9.73601 7.92699L10.2744 10.9064C10.3198 11.159 10.2132 11.4145 10.0019 11.5605C9.79475 11.7119 9.51921 11.73 9.29333 11.6089L6.61122 10.21C6.51796 10.1604 6.41441 10.1337 6.30843 10.1307H6.14432C6.0874 10.1392 6.03169 10.1573 5.98082 10.1852L3.29811 11.5907C3.16548 11.6573 3.0153 11.681 2.86814 11.6573C2.50964 11.5895 2.27044 11.248 2.32918 10.8877L2.86814 7.90821C2.90387 7.69081 2.83181 7.46978 2.67497 7.31535L0.488223 5.19583C0.305338 5.01839 0.241752 4.75194 0.325322 4.51153C0.406469 4.27172 0.613577 4.0967 0.863681 4.05734L3.8734 3.62072C4.10231 3.5971 4.30337 3.45782 4.40631 3.25192L5.73253 0.532876C5.76402 0.472318 5.80459 0.416605 5.85365 0.36937L5.90815 0.326979C5.93661 0.295489 5.96931 0.269449 6.00565 0.248254L6.07165 0.224031L6.1746 0.181641H6.42955C6.65725 0.205258 6.85769 0.341513 6.96246 0.544988L8.30624 3.25192C8.40313 3.44995 8.59146 3.58741 8.80887 3.62072L11.8186 4.05734C12.0729 4.09368 12.2855 4.26929 12.3697 4.51153C12.449 4.75436 12.3806 5.02082 12.1941 5.19583L9.92919 7.33958Z" fill="#FCAF23"/>
</svg>
