<svg width="74" height="74" viewBox="0 0 74 74" fill="none" xmlns="http://www.w3.org/2000/svg">
<g clip-path="url(#clip0_3306_6531)">
<path d="M71.8774 28.2406L70.3324 12.7887C70.2832 12.2977 70.0657 11.8387 69.7168 11.4898L61.6544 3.42734C61.3055 3.07829 60.8466 2.8608 60.3554 2.81177L44.9035 1.26664C41.2735 0.903061 37.7116 2.17496 35.1316 4.75483L3.20118 36.6851C1.18216 38.704 0.0703125 41.3884 0.0703125 44.2437C0.0703125 47.0989 1.18216 49.7834 3.20118 51.8022L21.3418 69.9428C23.3608 71.9618 26.0451 73.0737 28.9003 73.0737C31.7556 73.0737 34.44 71.9618 36.4589 69.9428L68.3893 38.0126C70.9692 35.4326 72.2405 31.8708 71.8774 28.2406ZM58.1269 23.0795C55.9005 25.3059 52.2907 25.3059 50.0643 23.0795C47.8379 20.8531 47.8379 17.2434 50.0643 15.017C52.2907 12.7906 55.9005 12.7906 58.1269 15.017C60.3533 17.2434 60.3533 20.8531 58.1269 23.0795Z" fill="url(#paint0_linear_3306_6531)"/>
<path d="M44.3416 31.5875L45.4103 30.5188C46.2452 29.6839 46.2452 28.3303 45.4103 27.4954C44.5754 26.6605 43.2218 26.6605 42.3869 27.4954L41.1428 28.7395C40.9477 28.6213 40.7478 28.5049 40.5382 28.3923C37.9743 27.0155 34.8182 27.2277 32.3015 28.9462C29.9998 30.5178 28.7534 33.0129 29.0489 35.4579C29.1974 36.6869 29.5506 38.0299 30.1825 39.6997L22.5048 47.3775C21.6609 46.3477 21.2832 45.4424 20.9185 43.6976C20.6769 42.5419 19.544 41.8013 18.3884 42.0424C17.2326 42.284 16.4915 43.4168 16.7332 44.5726C17.3124 47.3433 18.1203 48.858 19.4716 50.4107L18.1994 51.6829C17.3645 52.5178 17.3645 53.8714 18.1994 54.7063C19.0343 55.5412 20.3879 55.5412 21.2228 54.7063L22.6294 53.2997C24.009 54.174 25.5647 54.6654 27.2174 54.7352C27.3508 54.7409 27.4842 54.7437 27.6175 54.7437C29.6113 54.7437 31.5844 54.1154 33.2141 52.955C34.8267 51.8063 36.0044 50.1837 36.5299 48.3854C37.1167 46.3777 36.9016 44.2167 35.9078 42.1365C35.6829 41.6657 35.456 41.1824 35.2342 40.6946L41.2548 34.674C41.8273 35.6761 41.8316 36.4738 41.8309 36.5303C41.7568 37.7032 42.6442 38.7172 43.8181 38.7978C44.996 38.8785 46.0166 37.9893 46.0974 36.8113C46.1821 35.5826 45.8052 33.5505 44.3416 31.5875ZM32.0498 43.9797C33.5564 47.1335 31.4234 48.981 30.7338 49.4722C29.4554 50.3828 27.5709 50.8152 25.7993 50.1298L32.0174 43.9117C32.0284 43.9345 32.0388 43.9567 32.0498 43.9797ZM33.2939 34.9448C33.1923 34.1037 33.7492 33.1351 34.7127 32.4772C35.523 31.924 36.7496 31.537 37.9585 31.924L33.5699 36.3125C33.442 35.8316 33.3455 35.3717 33.2939 34.9448ZM54.5998 18.5443C53.7649 17.7094 53.7649 16.3558 54.5998 15.5209L69.3943 0.726286C70.2292 -0.108632 71.5828 -0.108632 72.4177 0.726286C73.2526 1.5612 73.2526 2.91477 72.4177 3.74969L57.6234 18.5443C56.7884 19.3791 55.4347 19.3791 54.5998 18.5443Z" fill="url(#paint1_linear_3306_6531)"/>
</g>
<defs>
<linearGradient id="paint0_linear_3306_6531" x1="12.2715" y1="60.8725" x2="65.6855" y2="7.45854" gradientUnits="userSpaceOnUse">
<stop stop-color="#005231"/>
<stop offset="1" stop-color="#9CFFAC"/>
</linearGradient>
<linearGradient id="paint1_linear_3306_6531" x1="18.318" y1="54.8248" x2="72.4171" y2="0.725581" gradientUnits="userSpaceOnUse">
<stop stop-color="#C3FFE8"/>
<stop offset="0.9973" stop-color="#F0FFF4"/>
</linearGradient>
<clipPath id="clip0_3306_6531">
<rect width="72.9733" height="72.9733" fill="white" transform="translate(0.0703125 0.100098)"/>
</clipPath>
</defs>
</svg>
