<svg width="74" height="74" viewBox="0 0 74 74" fill="none" xmlns="http://www.w3.org/2000/svg">
<g clip-path="url(#clip0_3306_6541)">
<path d="M37.108 35.3018C34.7425 34.734 34.4711 34.5085 34.4711 33.1055C34.4711 31.2452 37.204 30.3266 38.3189 31.8236C39.0267 32.7673 40.3691 32.9594 41.3128 32.2495C42.2564 31.5417 42.4464 30.2014 41.7386 29.2556C40.9784 28.2422 39.9186 27.5263 38.7469 27.1067V24.5539C38.7469 23.3722 37.7907 22.416 36.609 22.416C35.4273 22.416 34.4711 23.3722 34.4711 24.5539V27.0856C31.988 27.971 30.1953 30.3219 30.1953 33.1055C30.1953 38.0389 33.897 38.9282 36.11 39.4607C38.4755 40.0285 38.7469 40.254 38.7469 41.657C38.7469 42.8366 37.7885 43.7949 36.609 43.7949C35.9304 43.7949 35.3062 43.4838 34.8991 42.9389C34.1913 41.9952 32.8551 41.8094 31.9052 42.513C30.9615 43.2208 30.7715 44.5611 31.4793 45.5069C32.2396 46.5203 33.2994 47.2362 34.4711 47.6558V50.2086C34.4711 51.3903 35.4273 52.3465 36.609 52.3465C37.7907 52.3465 38.7469 51.3903 38.7469 50.2086V47.6769C41.23 46.7915 43.0227 44.4406 43.0227 41.657C43.0227 36.7236 39.321 35.8343 37.108 35.3018Z" fill="url(#paint0_linear_3306_6541)"/>
<path d="M73.0905 37.5232C73.0905 19.3115 59.5054 3.81597 41.4898 1.47968C40.3875 1.32518 39.4041 2.0267 39.1411 3.08096L37.0387 11.4927C36.721 12.7549 37.6032 14.0205 38.9219 14.14C51.0895 15.2215 60.2632 25.2743 60.2632 37.5232C60.2632 45.4088 56.3005 52.739 49.8055 57.0732L47.0078 53.3445C45.9397 51.9142 43.6589 52.3541 43.2248 54.1086L38.949 71.2117C38.6106 72.5563 39.6304 73.8674 41.0222 73.8674H58.1253C59.8889 73.8674 60.8884 71.8489 59.8352 70.4476L57.524 67.3639C67.3156 60.562 73.0905 49.5718 73.0905 37.5232ZM34.2858 60.6214C22.1182 59.5399 12.9445 49.4872 12.9445 37.2382C12.9445 29.3526 16.9072 22.0224 23.4022 17.6882L26.1999 21.4169C27.2587 22.8304 29.5455 22.4212 29.9829 20.6529L34.2587 3.54973C34.5971 2.20514 33.5773 0.894043 32.1855 0.894043H15.0824C13.3188 0.894043 12.3193 2.9125 13.3725 4.31381L15.6837 7.39751C5.89206 14.1994 0.117188 25.1896 0.117188 37.2382C0.117188 55.4499 13.7023 70.9454 31.7179 73.2817C32.782 73.4237 33.8015 72.7436 34.0666 71.6805L36.169 63.2687C36.4867 62.0065 35.6045 60.7409 34.2858 60.6214Z" fill="url(#paint1_linear_3306_6541)"/>
</g>
<defs>
<linearGradient id="paint0_linear_3306_6541" x1="36.609" y1="52.3465" x2="36.609" y2="22.416" gradientUnits="userSpaceOnUse">
<stop stop-color="#C3FFE8"/>
<stop offset="0.9973" stop-color="#F0FFF4"/>
</linearGradient>
<linearGradient id="paint1_linear_3306_6541" x1="36.6039" y1="73.8674" x2="36.6039" y2="0.894043" gradientUnits="userSpaceOnUse">
<stop stop-color="#005231"/>
<stop offset="1" stop-color="#9CFFAC"/>
</linearGradient>
<clipPath id="clip0_3306_6541">
<rect width="72.9733" height="72.9733" fill="white" transform="translate(0.117188 0.89502)"/>
</clipPath>
</defs>
</svg>
