<svg width="74" height="74" viewBox="0 0 74 74" fill="none" xmlns="http://www.w3.org/2000/svg">
<g clip-path="url(#clip0_3306_6556)">
<path d="M30.2444 55.1465C32.5735 52.9754 32.9321 49.5747 31.0455 47.5508C29.1589 45.527 25.7414 45.6463 23.4124 47.8174C21.0834 49.9885 20.7247 53.3892 22.6113 55.4131C24.498 57.4369 27.9154 57.3176 30.2444 55.1465Z" fill="url(#paint0_linear_3306_6556)"/>
<path d="M61.0648 55.1489C63.3938 52.9778 63.7524 49.5771 61.8658 47.5533C59.9792 45.5294 56.5617 45.6488 54.2327 47.8199C51.9037 49.991 51.545 53.3916 53.4317 55.4155C55.3183 57.4394 58.7357 57.32 61.0648 55.1489Z" fill="url(#paint1_linear_3306_6556)"/>
<path d="M5.80476 28.5752C5.80476 27.2312 4.71519 26.1416 3.37113 26.1416C2.02707 26.1416 0.9375 27.2312 0.9375 28.5752C0.9375 29.9193 2.02707 31.0089 3.37113 31.0089C4.71519 31.0089 5.80476 29.9193 5.80476 28.5752Z" fill="url(#paint2_linear_3306_6556)"/>
<path d="M49.5494 50.9734C50.4146 46.6977 54.4538 43.2998 58.7951 43.2998C62.9754 43.2998 65.9884 46.4511 65.9057 50.5031C70.4267 50.6214 71.6852 44.6681 71.6852 44.6681C72.0657 43.0034 72.6344 39.7581 73.1104 36.5726C73.2664 35.5891 73.1466 34.5816 72.7641 33.6622C71.5823 30.9035 70.1541 28.257 68.4968 25.7549C66.9291 23.416 64.2995 22.0307 61.2979 21.9808C59.5077 21.9523 57.7504 21.9352 56.4235 21.9352L56.4121 21.9238C56.241 19.0619 54.1544 16.8698 51.2255 16.6076C49.32 16.438 41.7718 16.314 38.1488 16.314C36.7093 16.314 34.6441 16.3339 32.5546 16.3681V16.3596H32.5375H7.41589C7.09616 16.3594 6.77952 16.4222 6.48409 16.5445C6.18865 16.6668 5.92022 16.8461 5.69413 17.0722C5.46805 17.2982 5.28874 17.5667 5.16647 17.8621C5.0442 18.1575 4.98136 18.4742 4.98155 18.7939V18.8053C4.98155 19.4479 5.23682 20.0642 5.69121 20.5186C6.1456 20.973 6.76189 21.2283 7.40449 21.2283H12.4684C13.0782 21.2732 13.6484 21.547 14.0648 21.9948C14.4811 22.4426 14.7127 23.0312 14.7132 23.6427V23.6555C14.7142 23.9755 14.652 24.2926 14.5302 24.5886C14.4085 24.8846 14.2296 25.1537 14.0038 25.3804C13.7779 25.6072 13.5096 25.7872 13.2141 25.9101C12.9186 26.0331 12.6018 26.0966 12.2817 26.0969H9.68491C9.03966 26.0969 8.42083 26.3533 7.96457 26.8095C7.50831 27.2658 7.25199 27.8846 7.25199 28.5299C7.2518 28.8495 7.31459 29.166 7.43677 29.4613C7.55896 29.7567 7.73813 30.0251 7.96407 30.2511C8.19001 30.4772 8.45827 30.6565 8.75354 30.7789C9.04881 30.9012 9.36529 30.9642 9.68491 30.9642H12.2817C12.9274 30.9642 13.5465 31.2207 14.0031 31.6772C14.4596 32.1337 14.7161 32.7529 14.7161 33.3986C14.7161 34.0442 14.4596 34.6634 14.0031 35.1199C13.5465 35.5764 12.9274 35.8329 12.2817 35.8329H2.56716C1.92178 35.8329 1.30281 36.0892 0.846319 36.5454C0.389832 37.0016 0.13319 37.6204 0.132812 38.2658C0.132813 38.9114 0.389287 39.5306 0.845815 39.9872C1.30234 40.4437 1.92153 40.7002 2.56716 40.7002H12.2817C12.9274 40.7002 13.5465 40.9566 14.0031 41.4132C14.4596 41.8697 14.7161 42.4889 14.7161 43.1345C14.7153 43.7796 14.4585 44.3981 14.0021 44.854C13.5456 45.3099 12.9269 45.566 12.2817 45.566H9.27728C8.63203 45.566 8.01321 45.8223 7.55695 46.2786C7.10069 46.7348 6.84436 47.3537 6.84436 47.9989C6.84436 48.6443 7.10064 49.2633 7.55686 49.7198C8.01308 50.1762 8.6319 50.4329 9.27728 50.4333L18.8636 50.4261L19.6603 48.4408C21.2922 45.4306 24.539 43.2984 27.9767 43.2984C32.3195 43.2984 35.4037 46.6991 35.0645 50.9777H49.548L49.5494 50.9734ZM25.4041 27.23H22.1374C22.1343 27.2303 22.1314 27.2315 22.1291 27.2336C22.1268 27.2356 22.1252 27.2384 22.1246 27.2414L21.8238 29.3793C21.8234 29.381 21.8234 29.3828 21.8237 29.3846C21.8241 29.3863 21.8249 29.3879 21.826 29.3893C21.8271 29.3907 21.8285 29.3918 21.8301 29.3925C21.8317 29.3933 21.8335 29.3936 21.8353 29.3936H24.2667C24.3861 29.3902 24.5047 29.4135 24.6139 29.4617C24.7231 29.51 24.8202 29.582 24.898 29.6726C24.9758 29.7631 25.0325 29.8699 25.0638 29.9851C25.0952 30.1003 25.1004 30.221 25.0791 30.3385C25.0375 30.5968 24.9071 30.8324 24.7104 31.0049C24.5138 31.1774 24.2631 31.2759 24.0016 31.2835H21.5673C21.5643 31.2834 21.5614 31.2843 21.5591 31.2862C21.5568 31.288 21.5551 31.2906 21.5545 31.2934L21.1183 34.3991C21.0767 34.6573 20.9463 34.893 20.7496 35.0654C20.553 35.2379 20.3023 35.3364 20.0408 35.344C19.9215 35.3475 19.803 35.3242 19.6938 35.2759C19.5847 35.2277 19.4877 35.1556 19.4099 35.065C19.3322 34.9745 19.2757 34.8677 19.2445 34.7524C19.2134 34.6372 19.2084 34.5165 19.2299 34.3991L20.3615 26.3435C20.4064 26.0708 20.5446 25.8221 20.7526 25.6401C20.9607 25.4581 21.2255 25.3541 21.5017 25.3458H25.6678C25.7871 25.3424 25.9057 25.3657 26.0148 25.4139C26.124 25.4622 26.221 25.5343 26.2987 25.6248C26.3764 25.7154 26.4329 25.8222 26.4641 25.9374C26.4952 26.0527 26.5002 26.1734 26.4788 26.2908C26.4365 26.5477 26.3062 26.782 26.1101 26.9534C25.914 27.1248 25.6644 27.2226 25.4041 27.23ZM34.1353 25.9872C34.4746 26.2883 34.7134 26.6863 34.8194 27.1274C34.9379 27.6271 34.9572 28.1453 34.8764 28.6524C34.7773 29.4416 34.4543 30.186 33.9457 30.7975C33.6351 31.1647 33.2406 31.4517 32.7955 31.6341C32.7935 31.6362 32.7924 31.639 32.7924 31.6419C32.7924 31.6448 32.7935 31.6476 32.7955 31.6498L33.6051 33.9858C33.8231 34.6129 33.263 35.344 32.566 35.344H32.5204C32.3513 35.349 32.1851 35.3 32.0457 35.2042C31.9063 35.1084 31.801 34.9706 31.7451 34.811L30.7659 31.9605C30.7645 31.9583 30.7626 31.9566 30.7604 31.9553C30.7582 31.9541 30.7557 31.9534 30.7531 31.9533H28.6722C28.6693 31.9535 28.6665 31.9545 28.6643 31.9563C28.662 31.9581 28.6603 31.9605 28.6594 31.9633L28.3173 34.3977C28.2757 34.6559 28.1453 34.8915 27.9486 35.064C27.752 35.2365 27.5013 35.335 27.2398 35.3426C27.1205 35.3461 27.002 35.3228 26.8928 35.2745C26.7836 35.2262 26.6867 35.1542 26.6089 35.0636C26.5312 34.973 26.4747 34.8662 26.4435 34.751C26.4124 34.6358 26.4074 34.5151 26.4289 34.3977L27.5605 26.3421C27.6054 26.0694 27.7436 25.8207 27.9516 25.6387C28.1596 25.4567 28.4245 25.3527 28.7007 25.3444H31.9218C31.9218 25.3444 33.3357 25.3002 34.1353 25.9872ZM43.0004 26.2238C42.9616 26.465 42.8399 26.6851 42.6562 26.8462C42.4725 27.0073 42.2383 27.0992 41.9941 27.106H38.2471C38.2442 27.1062 38.2414 27.1072 38.2391 27.109C38.2369 27.1108 38.2352 27.1132 38.2343 27.116L37.9364 29.2311C37.936 29.2328 37.9359 29.2346 37.9363 29.2363C37.9367 29.2381 37.9374 29.2397 37.9386 29.2411C37.9397 29.2425 37.9411 29.2436 37.9427 29.2443C37.9443 29.245 37.946 29.2454 37.9478 29.2453H40.8582C40.9697 29.2421 41.0804 29.2637 41.1825 29.3087C41.2845 29.3537 41.3751 29.421 41.4478 29.5056C41.5205 29.5901 41.5733 29.6899 41.6025 29.7975C41.6317 29.9051 41.6365 30.0179 41.6164 30.1276C41.5777 30.3688 41.456 30.5889 41.2723 30.75C41.0886 30.9111 40.8544 31.003 40.6102 31.0098H37.6984C37.6955 31.01 37.6927 31.011 37.6904 31.0128C37.6881 31.0146 37.6864 31.017 37.6856 31.0198L37.3278 33.5653C37.3278 33.5689 37.3291 33.5723 37.3315 33.5749C37.3339 33.5776 37.3371 33.5792 37.3407 33.5796H41.0848C41.1963 33.5763 41.3071 33.5979 41.4091 33.6429C41.5111 33.688 41.6017 33.7552 41.6744 33.8398C41.7471 33.9243 41.8 34.0241 41.8291 34.1317C41.8583 34.2393 41.8631 34.3521 41.8431 34.4618C41.8043 34.703 41.6826 34.9232 41.4989 35.0842C41.3152 35.2453 41.081 35.3372 40.8368 35.344H36.1905C36.0651 35.3458 35.9409 35.32 35.8266 35.2684C35.7123 35.2168 35.6108 35.1407 35.5292 35.0455C35.4476 34.9503 35.388 34.8383 35.3544 34.7175C35.3209 34.5967 35.3144 34.47 35.3353 34.3464L36.4598 26.3478C36.5047 26.0751 36.643 25.8264 36.851 25.6444C37.059 25.4624 37.3238 25.3584 37.6001 25.3501H42.245C42.3553 25.3475 42.4649 25.3693 42.5658 25.414C42.6668 25.4588 42.7566 25.5253 42.8288 25.6088C42.901 25.6923 42.9538 25.7907 42.9835 25.8971C43.0131 26.0034 43.0189 26.115 43.0004 26.2238ZM50.7837 26.2238C50.745 26.465 50.6232 26.6851 50.4395 26.8462C50.2558 27.0073 50.0217 27.0992 49.7775 27.106H46.0305C46.0276 27.1062 46.0248 27.1072 46.0225 27.109C46.0202 27.1108 46.0185 27.1132 46.0176 27.116L45.7212 29.2311C45.7207 29.2328 45.7207 29.2346 45.7211 29.2363C45.7214 29.2381 45.7222 29.2397 45.7233 29.2411C45.7244 29.2425 45.7258 29.2436 45.7275 29.2443C45.7291 29.245 45.7308 29.2454 45.7326 29.2453H48.643C48.7544 29.2421 48.8652 29.2637 48.9672 29.3087C49.0692 29.3537 49.1599 29.421 49.2326 29.5056C49.3053 29.5901 49.3581 29.6899 49.3873 29.7975C49.4165 29.9051 49.4212 30.0179 49.4012 30.1276C49.3625 30.3688 49.2407 30.5889 49.057 30.75C48.8733 30.9111 48.6392 31.003 48.395 31.0098H45.4817C45.4788 31.01 45.4761 31.011 45.4738 31.0128C45.4715 31.0146 45.4698 31.017 45.4689 31.0198L45.1112 33.5653C45.1112 33.5689 45.1125 33.5723 45.1148 33.5749C45.1172 33.5776 45.1205 33.5792 45.124 33.5796H48.8682C48.9796 33.5763 49.0904 33.5979 49.1924 33.6429C49.2944 33.688 49.3851 33.7552 49.4578 33.8398C49.5304 33.9243 49.5833 34.0241 49.6125 34.1317C49.6417 34.2393 49.6464 34.3521 49.6264 34.4618C49.5877 34.703 49.4659 34.9232 49.2822 35.0842C49.0985 35.2453 48.8644 35.3372 48.6202 35.344H43.9738C43.8484 35.3458 43.7242 35.32 43.61 35.2684C43.4957 35.2168 43.3942 35.1407 43.3126 35.0455C43.231 34.9503 43.1713 34.8383 43.1378 34.7175C43.1043 34.5967 43.0978 34.47 43.1187 34.3464L44.2432 26.3478C44.288 26.0751 44.4263 25.8264 44.6343 25.6444C44.8423 25.4624 45.1071 25.3584 45.3834 25.3501H50.0283C50.1387 25.3475 50.2483 25.3693 50.3492 25.414C50.4501 25.4588 50.5399 25.5253 50.6121 25.6088C50.6843 25.6923 50.7371 25.7907 50.7668 25.8971C50.7965 26.0034 50.8022 26.115 50.7837 26.2238ZM56.1997 25.3102C57.4725 25.3102 59.1201 25.3273 60.7734 25.3544C62.7773 25.3872 64.5303 26.3079 65.5822 27.8785C66.7057 29.5723 67.7156 31.3387 68.6052 33.1662C69.0755 34.124 68.2104 35.3711 67.0773 35.3711H54.9269L56.1997 25.3102Z" fill="url(#paint3_linear_3306_6556)"/>
<path d="M31.1582 30.1902H28.9062L29.3338 27.1059H31.5843C31.5843 27.1059 33.2362 26.999 32.9654 28.648C32.9725 28.648 32.7829 30.1902 31.1582 30.1902Z" fill="url(#paint4_linear_3306_6556)"/>
</g>
<defs>
<linearGradient id="paint0_linear_3306_6556" x1="23.4124" y1="47.8174" x2="30.2444" y2="55.1465" gradientUnits="userSpaceOnUse">
<stop stop-color="#005231"/>
<stop offset="1" stop-color="#9CFFAC"/>
</linearGradient>
<linearGradient id="paint1_linear_3306_6556" x1="54.2327" y1="47.8199" x2="61.0648" y2="55.1489" gradientUnits="userSpaceOnUse">
<stop stop-color="#005231"/>
<stop offset="1" stop-color="#9CFFAC"/>
</linearGradient>
<linearGradient id="paint2_linear_3306_6556" x1="3.37113" y1="26.1416" x2="3.37113" y2="31.0089" gradientUnits="userSpaceOnUse">
<stop stop-color="#005231"/>
<stop offset="1" stop-color="#9CFFAC"/>
</linearGradient>
<linearGradient id="paint3_linear_3306_6556" x1="36.6549" y1="16.314" x2="36.6549" y2="50.9777" gradientUnits="userSpaceOnUse">
<stop stop-color="#005231"/>
<stop offset="1" stop-color="#9CFFAC"/>
</linearGradient>
<linearGradient id="paint4_linear_3306_6556" x1="30.9508" y1="27.1045" x2="30.9508" y2="30.1902" gradientUnits="userSpaceOnUse">
<stop stop-color="#005231"/>
<stop offset="1" stop-color="#9CFFAC"/>
</linearGradient>
<clipPath id="clip0_3306_6556">
<rect width="72.9733" height="72.9733" fill="white" transform="translate(0.164062 0.100098)"/>
</clipPath>
</defs>
</svg>
