<svg width="23" height="26" viewBox="0 0 23 26" fill="none" xmlns="http://www.w3.org/2000/svg">
<path fill-rule="evenodd" clip-rule="evenodd" d="M10.6009 0.845139C11.0021 0.533066 11.5639 0.533066 11.9651 0.845139L21.9651 8.62292C22.2358 8.83342 22.3941 9.15709 22.3941 9.49997V21.7222C22.3941 22.6063 22.0429 23.4541 21.4178 24.0792C20.7927 24.7043 19.9449 25.0555 19.0608 25.0555H3.50521C2.62115 25.0555 1.77331 24.7043 1.14819 24.0792C0.523064 23.4541 0.171875 22.6063 0.171875 21.7222V9.49997C0.171875 9.15709 0.330175 8.83342 0.600831 8.62292L10.6009 0.845139ZM2.3941 10.0434V21.7222C2.3941 22.0169 2.51116 22.2995 2.71953 22.5079C2.92791 22.7162 3.21052 22.8333 3.50521 22.8333H19.0608C19.3554 22.8333 19.6381 22.7162 19.8464 22.5079C20.0548 22.2995 20.1719 22.0169 20.1719 21.7222V10.0434L11.283 3.12982L2.3941 10.0434Z" fill="#005231"/>
</svg>
