<svg width="26" height="27" viewBox="0 0 26 27" fill="none" xmlns="http://www.w3.org/2000/svg">
<path d="M8.77487 18.0261L17.956 8.84491M13.0312 1.5L16.2777 3.4464L20.0475 3.77876L21.5293 7.26208L24.3828 9.74466L23.5345 13.4355L24.3828 17.1245L21.5293 19.6089L20.0475 23.0922L16.2777 23.4246L13.0312 25.371L9.78663 23.4246L6.01502 23.0922L4.53502 19.6089L1.67969 17.1245L2.52802 13.4355L1.67969 9.7465L4.53502 7.26208L6.01502 3.77876L9.78663 3.4464L13.0312 1.5ZM11.5292 10.6811C11.5292 11.1681 11.3358 11.6352 10.9914 11.9795C10.647 12.3239 10.18 12.5174 9.69299 12.5174C9.20599 12.5174 8.73894 12.3239 8.39458 11.9795C8.05022 11.6352 7.85676 11.1681 7.85676 10.6811C7.85676 10.1941 8.05022 9.72709 8.39458 9.38273C8.73894 9.03837 9.20599 8.84491 9.69299 8.84491C10.18 8.84491 10.647 9.03837 10.9914 9.38273C11.3358 9.72709 11.5292 10.1941 11.5292 10.6811ZM18.8741 17.1079C18.8741 17.5949 18.6807 18.062 18.3363 18.4063C17.9919 18.7507 17.5249 18.9442 17.0379 18.9442C16.5509 18.9442 16.0838 18.7507 15.7395 18.4063C15.3951 18.062 15.2017 17.5949 15.2017 17.1079C15.2017 16.6209 15.3951 16.1539 15.7395 15.8095C16.0838 15.4652 16.5509 15.2717 17.0379 15.2717C17.5249 15.2717 17.9919 15.4652 18.3363 15.8095C18.6807 16.1539 18.8741 16.6209 18.8741 17.1079Z" stroke="#FFC141" stroke-width="2.52257"/>
</svg>
