<svg width="55" height="55" viewBox="0 0 55 55" fill="none" xmlns="http://www.w3.org/2000/svg">
<g clip-path="url(#clip0_3297_2293)">
<path d="M22.5525 41.36C24.2992 39.7317 24.5682 37.1812 23.1533 35.6633C21.7383 34.1454 19.1752 34.2349 17.4284 35.8632C15.6817 37.4915 15.4127 40.042 16.8276 41.5599C18.2426 43.0778 20.8057 42.9883 22.5525 41.36Z" fill="url(#paint0_linear_3297_2293)"/>
<path d="M45.6677 41.3614C47.4145 39.7331 47.6835 37.1826 46.2685 35.6647C44.8535 34.1468 42.2904 34.2363 40.5437 35.8647C38.7969 37.493 38.5279 40.0435 39.9429 41.5614C41.3579 43.0793 43.921 42.9898 45.6677 41.3614Z" fill="url(#paint1_linear_3297_2293)"/>
<path d="M4.22271 21.4312C4.22271 20.4231 3.40553 19.606 2.39749 19.606C1.38945 19.606 0.572266 20.4231 0.572266 21.4312C0.572266 22.4392 1.38945 23.2564 2.39749 23.2564C3.40553 23.2564 4.22271 22.4392 4.22271 21.4312Z" fill="url(#paint2_linear_3297_2293)"/>
<path d="M37.0312 38.23C37.6801 35.0231 40.7095 32.4748 43.9655 32.4748C47.1007 32.4748 49.3604 34.8382 49.2984 37.8772C52.6891 37.9659 53.633 33.5009 53.633 33.5009C53.9184 32.2524 54.3449 29.8184 54.702 27.4293C54.819 26.6917 54.729 25.9361 54.4422 25.2465C53.5559 23.1775 52.4847 21.1926 51.2418 19.316C50.0659 17.5619 48.0937 16.5229 45.8425 16.4855C44.4999 16.4641 43.1819 16.4513 42.1867 16.4513L42.1782 16.4427C42.0499 14.2963 40.485 12.6522 38.2883 12.4556C36.8591 12.3283 31.198 12.2354 28.4807 12.2354C27.4011 12.2354 25.8522 12.2503 24.2851 12.276V12.2696H24.2723H5.43106C5.19126 12.2694 4.95378 12.3165 4.73221 12.4082C4.51063 12.5 4.30931 12.6344 4.13974 12.804C3.97018 12.9736 3.8357 13.1749 3.74399 13.3965C3.65229 13.618 3.60516 13.8555 3.6053 14.0953V14.1039C3.6053 14.5858 3.79676 15.048 4.13755 15.3888C4.47834 15.7296 4.94056 15.9211 5.42251 15.9211H9.22047C9.67779 15.9548 10.1055 16.1602 10.4177 16.496C10.7299 16.8318 10.9037 17.2733 10.9041 17.7319V17.7415C10.9048 17.9815 10.8581 18.2193 10.7668 18.4413C10.6755 18.6633 10.5413 18.8651 10.372 19.0352C10.2026 19.2053 10.0013 19.3403 9.77971 19.4325C9.55809 19.5247 9.32047 19.5723 9.08044 19.5726H7.13282C6.64888 19.5726 6.18477 19.7648 5.84257 20.107C5.50037 20.4492 5.30813 20.9133 5.30813 21.3973C5.30799 21.637 5.35508 21.8744 5.44672 22.0959C5.53836 22.3174 5.67274 22.5187 5.84219 22.6882C6.01164 22.8578 6.21284 22.9923 6.4343 23.084C6.65575 23.1758 6.89311 23.223 7.13282 23.223H9.08044C9.56466 23.223 10.029 23.4154 10.3714 23.7578C10.7138 24.1002 10.9062 24.5646 10.9062 25.0488C10.9062 25.533 10.7138 25.9974 10.3714 26.3398C10.029 26.6822 9.56466 26.8746 9.08044 26.8746H1.79451C1.31047 26.8746 0.846245 27.0668 0.50388 27.4089C0.161515 27.7511 -0.0309666 28.2152 -0.03125 28.6992C-0.03125 29.1835 0.161106 29.6479 0.503502 29.9902C0.845898 30.3326 1.31029 30.525 1.79451 30.525H9.08044C9.56466 30.525 10.029 30.7174 10.3714 31.0598C10.7138 31.4021 10.9062 31.8665 10.9062 32.3508C10.9056 32.8346 10.713 33.2984 10.3707 33.6404C10.0284 33.9823 9.56429 34.1744 9.08044 34.1744H6.8271C6.34316 34.1744 5.87905 34.3666 5.53685 34.7088C5.19466 35.051 5.00241 35.5151 5.00241 35.9991C5.00241 36.4831 5.19462 36.9473 5.53679 37.2897C5.87895 37.6321 6.34307 37.8245 6.8271 37.8248L14.0168 37.8195L14.6144 36.3304C15.8383 34.0728 18.2734 32.4737 20.8517 32.4737C24.1087 32.4737 26.4219 35.0242 26.1675 38.2332H37.0301L37.0312 38.23ZM18.9222 20.4224H16.4722C16.4699 20.4226 16.4677 20.4235 16.466 20.4251C16.4642 20.4266 16.463 20.4287 16.4626 20.431L16.237 22.0344C16.2367 22.0357 16.2367 22.037 16.2369 22.0383C16.2372 22.0396 16.2378 22.0408 16.2386 22.0419C16.2395 22.0429 16.2405 22.0437 16.2417 22.0443C16.2429 22.0448 16.2443 22.0451 16.2456 22.0451H18.0692C18.1587 22.0425 18.2477 22.06 18.3296 22.0962C18.4115 22.1324 18.4843 22.1864 18.5426 22.2543C18.601 22.3222 18.6435 22.4023 18.667 22.4887C18.6905 22.5751 18.6944 22.6657 18.6785 22.7538C18.6472 22.9475 18.5495 23.1242 18.402 23.2535C18.2545 23.3829 18.0665 23.4568 17.8704 23.4625H16.0446C16.0424 23.4624 16.0402 23.4631 16.0385 23.4645C16.0367 23.4659 16.0355 23.4678 16.035 23.47L15.7079 25.7992C15.6767 25.9929 15.5789 26.1696 15.4314 26.299C15.2839 26.4283 15.0959 26.5022 14.8998 26.5079C14.8103 26.5105 14.7214 26.493 14.6395 26.4568C14.5576 26.4206 14.4849 26.3666 14.4266 26.2987C14.3683 26.2307 14.3259 26.1506 14.3025 26.0642C14.2792 25.9778 14.2754 25.8872 14.2915 25.7992L15.1403 19.7575C15.1739 19.553 15.2776 19.3665 15.4336 19.23C15.5896 19.0935 15.7882 19.0154 15.9954 19.0093H19.12C19.2095 19.0067 19.2984 19.0241 19.3802 19.0603C19.4621 19.0965 19.5349 19.1506 19.5932 19.2185C19.6515 19.2864 19.6938 19.3665 19.7172 19.453C19.7406 19.5394 19.7443 19.6299 19.7282 19.718C19.6965 19.9107 19.5988 20.0864 19.4517 20.2149C19.3046 20.3434 19.1174 20.4168 18.9222 20.4224ZM25.4706 19.4903C25.7251 19.7161 25.9042 20.0146 25.9837 20.3454C26.0725 20.7202 26.0871 21.1088 26.0264 21.4892C25.9521 22.0811 25.7099 22.6393 25.3284 23.098C25.0955 23.3734 24.7996 23.5886 24.4658 23.7254C24.4643 23.727 24.4634 23.7291 24.4634 23.7313C24.4634 23.7335 24.4643 23.7356 24.4658 23.7372L25.0729 25.4892C25.2365 25.9595 24.8164 26.5079 24.2937 26.5079H24.2595C24.1326 26.5116 24.0079 26.4749 23.9034 26.403C23.7988 26.3311 23.7199 26.2279 23.678 26.1081L22.9436 23.9702C22.9425 23.9686 22.9411 23.9673 22.9394 23.9664C22.9378 23.9654 22.9359 23.9649 22.934 23.9649H21.3733C21.3711 23.965 21.369 23.9658 21.3673 23.9671C21.3656 23.9685 21.3643 23.9703 21.3637 23.9724L21.1071 25.7981C21.0759 25.9918 20.9781 26.1685 20.8306 26.2979C20.6831 26.4272 20.4951 26.5011 20.299 26.5068C20.2095 26.5094 20.1206 26.492 20.0387 26.4558C19.9569 26.4196 19.8841 26.3655 19.8258 26.2976C19.7675 26.2297 19.7251 26.1496 19.7018 26.0631C19.6784 25.9767 19.6747 25.8862 19.6908 25.7981L20.5395 19.7564C20.5732 19.5519 20.6769 19.3654 20.8329 19.2289C20.9889 19.0924 21.1875 19.0144 21.3947 19.0082H23.8105C23.8105 19.0082 24.8709 18.975 25.4706 19.4903ZM32.1194 19.6677C32.0904 19.8486 31.9991 20.0137 31.8613 20.1345C31.7235 20.2553 31.5479 20.3243 31.3647 20.3294H28.5545C28.5523 20.3295 28.5502 20.3303 28.5485 20.3316C28.5468 20.333 28.5455 20.3348 28.5449 20.3369L28.3215 21.9232C28.3211 21.9245 28.3211 21.9258 28.3214 21.9271C28.3216 21.9284 28.3222 21.9296 28.3231 21.9307C28.3239 21.9317 28.3249 21.9326 28.3261 21.9331C28.3274 21.9337 28.3287 21.9339 28.33 21.9339H30.5128C30.5964 21.9314 30.6795 21.9477 30.756 21.9814C30.8325 22.0152 30.9005 22.0656 30.955 22.1291C31.0095 22.1925 31.0491 22.2673 31.071 22.348C31.0929 22.4287 31.0965 22.5133 31.0815 22.5956C31.0524 22.7765 30.9611 22.9416 30.8233 23.0624C30.6856 23.1832 30.51 23.2521 30.3268 23.2572H28.1429C28.1408 23.2574 28.1387 23.2581 28.137 23.2595C28.1352 23.2608 28.134 23.2626 28.1333 23.2647L27.865 25.1739C27.865 25.1765 27.866 25.1791 27.8678 25.1811C27.8695 25.183 27.872 25.1843 27.8746 25.1846H30.6827C30.7663 25.1821 30.8494 25.1983 30.9259 25.2321C31.0024 25.2659 31.0704 25.3163 31.125 25.3797C31.1795 25.4431 31.2191 25.5179 31.241 25.5987C31.2629 25.6794 31.2664 25.764 31.2514 25.8462C31.2224 26.0271 31.1311 26.1922 30.9933 26.313C30.8555 26.4338 30.6799 26.5028 30.4968 26.5079H27.012C26.918 26.5092 26.8248 26.4898 26.7391 26.4512C26.6534 26.4125 26.5772 26.3554 26.5161 26.284C26.4549 26.2126 26.4101 26.1286 26.385 26.038C26.3598 25.9474 26.3549 25.8524 26.3706 25.7596L27.214 19.7607C27.2477 19.5562 27.3514 19.3697 27.5074 19.2332C27.6634 19.0967 27.862 19.0186 28.0692 19.0125H31.5529C31.6356 19.0105 31.7178 19.0269 31.7935 19.0604C31.8692 19.094 31.9366 19.1438 31.9907 19.2065C32.0449 19.2691 32.0845 19.3429 32.1067 19.4227C32.129 19.5024 32.1333 19.5861 32.1194 19.6677ZM37.9569 19.6677C37.9279 19.8486 37.8366 20.0137 37.6988 20.1345C37.561 20.2553 37.3854 20.3243 37.2022 20.3294H34.392C34.3898 20.3295 34.3877 20.3303 34.386 20.3316C34.3843 20.333 34.383 20.3348 34.3824 20.3369L34.16 21.9232C34.1597 21.9245 34.1597 21.9258 34.1599 21.9271C34.1602 21.9284 34.1608 21.9296 34.1616 21.9307C34.1625 21.9317 34.1635 21.9326 34.1647 21.9331C34.1659 21.9337 34.1673 21.9339 34.1686 21.9339H36.3514C36.435 21.9314 36.518 21.9477 36.5946 21.9814C36.6711 22.0152 36.7391 22.0656 36.7936 22.1291C36.8481 22.1925 36.8877 22.2673 36.9096 22.348C36.9315 22.4287 36.9351 22.5133 36.92 22.5956C36.891 22.7765 36.7997 22.9416 36.6619 23.0624C36.5241 23.1832 36.3485 23.2521 36.1654 23.2572H33.9804C33.9783 23.2574 33.9762 23.2581 33.9745 23.2595C33.9727 23.2608 33.9715 23.2626 33.9708 23.2647L33.7025 25.1739C33.7025 25.1765 33.7035 25.1791 33.7053 25.1811C33.707 25.183 33.7095 25.1843 33.7121 25.1846H36.5203C36.6039 25.1821 36.6869 25.1983 36.7634 25.2321C36.84 25.2659 36.908 25.3163 36.9625 25.3797C37.017 25.4431 37.0566 25.5179 37.0785 25.5987C37.1004 25.6794 37.1039 25.764 37.0889 25.8462C37.0599 26.0271 36.9686 26.1922 36.8308 26.313C36.693 26.4338 36.5174 26.5028 36.3343 26.5079H32.8495C32.7555 26.5092 32.6623 26.4898 32.5766 26.4512C32.4909 26.4125 32.4148 26.3554 32.3536 26.284C32.2924 26.2126 32.2476 26.1286 32.2225 26.038C32.1974 25.9474 32.1925 25.8524 32.2081 25.7596L33.0515 19.7607C33.0852 19.5562 33.1889 19.3697 33.3449 19.2332C33.5009 19.0967 33.6995 19.0186 33.9067 19.0125H37.3904C37.4732 19.0105 37.5553 19.0269 37.631 19.0604C37.7067 19.094 37.7741 19.1438 37.8282 19.2065C37.8824 19.2691 37.922 19.3429 37.9442 19.4227C37.9665 19.5024 37.9708 19.5861 37.9569 19.6677ZM42.0189 18.9825C42.9735 18.9825 44.2092 18.9954 45.4492 19.0157C46.9521 19.0403 48.2669 19.7308 49.0558 20.9088C49.8984 22.1791 50.6558 23.5039 51.323 24.8746C51.6758 25.5929 51.0269 26.5282 50.1771 26.5282H41.0643L42.0189 18.9825Z" fill="url(#paint3_linear_3297_2293)"/>
<path d="M23.2378 22.6424H21.5488L21.8695 20.3292H23.5574C23.5574 20.3292 24.7963 20.249 24.5932 21.4858C24.5985 21.4858 24.4564 22.6424 23.2378 22.6424Z" fill="url(#paint4_linear_3297_2293)"/>
</g>
<defs>
<linearGradient id="paint0_linear_3297_2293" x1="17.4284" y1="35.8632" x2="22.5525" y2="41.36" gradientUnits="userSpaceOnUse">
<stop stop-color="#005231"/>
<stop offset="1" stop-color="#9CFFAC"/>
</linearGradient>
<linearGradient id="paint1_linear_3297_2293" x1="40.5437" y1="35.8647" x2="45.6677" y2="41.3615" gradientUnits="userSpaceOnUse">
<stop stop-color="#005231"/>
<stop offset="1" stop-color="#9CFFAC"/>
</linearGradient>
<linearGradient id="paint2_linear_3297_2293" x1="2.39749" y1="19.606" x2="2.39749" y2="23.2564" gradientUnits="userSpaceOnUse">
<stop stop-color="#005231"/>
<stop offset="1" stop-color="#9CFFAC"/>
</linearGradient>
<linearGradient id="paint3_linear_3297_2293" x1="27.3603" y1="12.2354" x2="27.3603" y2="38.2332" gradientUnits="userSpaceOnUse">
<stop stop-color="#005231"/>
<stop offset="1" stop-color="#9CFFAC"/>
</linearGradient>
<linearGradient id="paint4_linear_3297_2293" x1="23.0823" y1="20.3281" x2="23.0823" y2="22.6424" gradientUnits="userSpaceOnUse">
<stop stop-color="#005231"/>
<stop offset="1" stop-color="#9CFFAC"/>
</linearGradient>
<clipPath id="clip0_3297_2293">
<rect width="54.73" height="54.73" fill="white" transform="translate(-0.00390625 0.074707)"/>
</clipPath>
</defs>
</svg>
