<svg width="27" height="31" viewBox="0 0 27 31" fill="none" xmlns="http://www.w3.org/2000/svg">
<path d="M10.1885 7.8125C15.248 7.8125 19.3495 11.9141 19.3496 16.9736C19.3496 22.0332 15.248 26.1348 10.1885 26.1348C5.12898 26.1347 1.02734 22.0331 1.02734 16.9736C1.02742 11.9142 5.12903 7.81257 10.1885 7.8125Z" fill="#FFC141" stroke="#005231" stroke-width="1.17943"/>
<path d="M10.1885 7.8125C10.8717 7.8125 11.44 7.96876 11.8994 8.28516C12.3557 8.59954 12.6516 9.0359 12.8584 9.50293C13.0626 9.96418 13.1916 10.4834 13.2979 10.9941C13.4111 11.5388 13.489 12.0173 13.6104 12.5596C13.844 13.6031 14.1733 14.5302 14.8789 15.209C15.5707 15.8743 16.715 16.3837 18.7598 16.3838H19.3496V16.9736C19.3496 22.0332 15.248 26.1348 10.1885 26.1348C5.12898 26.1347 1.02734 22.0331 1.02734 16.9736V16.3838H1.61719C3.66215 16.3838 4.80625 15.8743 5.49805 15.209C6.20369 14.5302 6.53297 13.6031 6.7666 12.5596C6.888 12.0173 6.96583 11.5388 7.0791 10.9941C7.18533 10.4834 7.3143 9.96419 7.51855 9.50293C7.72544 9.03572 8.02192 8.59959 8.47852 8.28516C8.93792 7.96882 9.5053 7.81252 10.1885 7.8125Z" fill="#01BE72" stroke="#005231" stroke-width="1.17943"/>
<path d="M7.68301 18.5312C7.68301 18.5312 7.87092 18.6296 7.87092 18.6891C7.87092 18.7305 7.81759 18.7668 7.76934 18.7875C7.7211 18.8082 7.68555 18.8496 7.68047 18.9014L7.66016 19.0542L8.90693 20.9287L9.34877 21.1177L10.334 20.0484L9.70934 18.381L8.53366 18.3525L7.68301 18.5312Z" fill="#005231"/>
<path d="M8.50009 18.8263C9.17299 18.9842 9.55134 19.8619 9.34312 20.7888C9.1349 21.7131 8.42137 22.3371 7.74592 22.1792C7.07302 22.0212 6.69467 21.1435 6.90289 20.2166C7.11111 19.2897 7.82718 18.6683 8.50009 18.8263Z" fill="#005231"/>
<path d="M12.4529 19.621C12.3234 20.2916 11.8892 20.781 11.3966 20.6955C10.9065 20.6101 10.612 19.9965 10.7415 19.3233C10.871 18.6527 11.3737 18.1789 11.8664 18.2644C12.3564 18.3498 12.5824 18.9505 12.4529 19.621Z" fill="#005231"/>
<path d="M12.3384 19.6181C12.2394 20.1256 11.9982 20.5139 11.757 20.4725C11.5157 20.4311 11.4015 19.9806 11.5005 19.4731C11.5995 18.9657 11.8712 18.5877 12.1125 18.6291C12.3537 18.6705 12.4375 19.1107 12.3384 19.6181Z" fill="#01BE72"/>
<path d="M8.81352 19.2201C9.83176 19.5929 8.94556 22.1147 7.92731 21.7419C6.90907 21.3691 7.79527 18.8473 8.81352 19.2201Z" fill="#01BE72"/>
<path d="M9.15891 20.7034C8.93291 21.4051 8.39967 21.8763 7.968 21.7572C7.82834 21.7184 7.71407 21.62 7.63281 21.4802C7.65313 21.4879 7.67598 21.4905 7.69883 21.4957C8.12289 21.5785 8.58758 21.1125 8.73485 20.4497C8.84912 19.9267 8.73485 19.44 8.47077 19.2173C8.57742 19.1836 8.68407 19.181 8.78564 19.2095C9.21731 19.3312 9.38744 19.9992 9.16145 20.7008L9.15891 20.7034Z" fill="#005231"/>
<path d="M11.9828 17.7901L11.9727 17.9947L12.709 18.0335L12.671 17.5882L12.3155 17.583L11.9828 17.7901Z" fill="#005231"/>
<path d="M12.644 16.8891C12.6034 17.0082 12.4713 17.3577 12.4434 17.4328L12.3901 17.4949L12.1742 17.4017L11.9609 16.8243L12.0092 16.7829C12.0092 16.7829 12.1108 16.6664 12.3164 16.669C12.4205 16.669 12.517 16.6768 12.5856 16.7001C12.6211 16.7337 12.6745 16.801 12.644 16.8917V16.8891Z" fill="#005231"/>
<path d="M12.1328 18.4116L12.209 18.5307L12.4223 18.5411L12.4858 17.6245L12.1379 17.6297L12.1328 18.4116Z" fill="#005231"/>
<path d="M11.6523 17.985L12.4725 17.6251L12.4801 17.5992C12.4954 17.5371 12.4421 17.4775 12.3735 17.4775H12.2364L11.792 17.7779L11.6523 17.9876V17.985Z" fill="#005231"/>
<path d="M11.6523 16.9337L12.0078 16.7861L12.145 16.7991C12.3151 16.812 12.4446 16.9441 12.4446 17.0994L12.4141 17.3583C12.409 17.3946 12.3938 17.4256 12.3659 17.4515L12.2821 17.5318L11.7412 17.8839L11.6523 16.9337Z" fill="#005231"/>
<path d="M10.5721 15.0825L12.3749 15.1809L12.2861 17.0891L10.5391 16.8819L10.5721 15.0825Z" fill="#01BE72"/>
<path d="M13.1923 16.5761L12.2832 17.0888L12.3721 15.1806L13.3014 14.8311L13.1923 16.5761Z" fill="#005231"/>
<path d="M10.5703 15.0822L11.5936 14.7534L13.3026 14.8311L12.3732 15.1806L10.5703 15.0822Z" fill="#005231"/>
<path d="M13.2803 15.1243L12.3535 15.4867L12.3688 15.1812L13.2981 14.8291L13.2803 15.1243Z" fill="#01BE72"/>
<path d="M12.2409 18.3418L11.4918 19.916C11.4512 20.004 11.4944 20.1076 11.5883 20.1464C11.6848 20.1852 11.7966 20.1438 11.8372 20.0532L12.5533 18.4428L12.2409 18.3418Z" fill="#005231"/>
<path d="M11.5428 19.3031C11.5428 19.3031 11.5631 19.5801 11.5453 19.6707C11.5275 19.7613 11.4006 19.896 11.4107 19.9892C11.431 20.1601 11.6748 20.1212 11.7485 20.0953C12.0151 19.9995 12.0379 19.7691 12.0379 19.7691L12.0963 19.6604C12.1141 19.6241 12.1141 19.5827 12.0989 19.5465L11.9389 19.1943L11.5453 19.3057L11.5428 19.3031Z" fill="white"/>
<path d="M12.0316 16.9698C12.0316 16.9698 12.2931 17.4177 11.6405 18.0727C11.6075 18.1064 11.6024 18.153 11.6227 18.1944C11.704 18.3446 11.8944 18.6993 11.9148 18.8184C11.9427 18.9737 11.9986 19.1938 11.9986 19.1938C11.9986 19.1938 11.9071 19.4346 11.5161 19.3543C11.5161 19.3543 11.1682 18.6061 11.0311 18.3834C10.8584 18.1064 10.8838 17.9458 10.9676 17.8034L10.6375 17.4073L10.5664 16.8066L12.029 16.9672L12.0316 16.9698Z" fill="#005231"/>
<path d="M9.70965 15.5195L9.57507 15.5894L9.28559 15.8561C9.28559 15.8561 9.28559 15.8898 9.13831 15.926C8.99104 15.9623 8.74219 16.3066 8.74219 16.3066L9.15609 16.5112L9.94834 15.8587L9.71219 15.5195H9.70965Z" fill="#005231"/>
<path d="M9.57285 15.5899C9.57285 15.5899 9.76838 15.1497 10.0223 15.129C10.2762 15.1083 11.2259 14.9685 11.2259 14.9685C11.2259 14.9685 11.3783 14.9271 11.5281 15.0384C11.6779 15.1497 11.7287 15.2222 11.8125 15.5743C11.8125 15.5743 11.843 15.8721 11.8658 15.9756C11.8836 16.0507 11.9775 16.3588 11.9953 16.6902C11.9953 16.6902 12.0207 16.8818 12.0715 17.0165C12.1223 17.1511 12.074 17.133 12.074 17.133C12.074 17.133 12.1096 16.9362 11.2919 16.9414C10.4718 16.9466 10.3727 16.9336 10.3727 16.9336L10.4489 16.7575C10.4489 16.7575 10.3727 16.5815 10.4057 16.4727C10.4057 16.4727 10.0477 16.03 10.0401 15.8073L9.94866 15.8928C9.94866 15.8928 9.74806 15.6054 9.57031 15.5899H9.57285Z" fill="#FFC141"/>
<path d="M11.0933 17.6585L10.9663 17.9122C10.9663 17.9122 10.9689 17.8941 10.9536 17.8682C10.9359 17.832 10.8876 17.7906 10.7886 17.7854C10.6718 17.7776 10.2985 17.7621 10.0827 17.7543C9.98871 17.7491 9.92523 17.7465 9.92523 17.7465L9.6967 17.4954L9.5672 17.353L9.44531 17.221C9.44531 17.221 9.47071 17.1899 9.51133 17.1485C9.62814 17.0216 9.8846 16.7756 10.0471 16.7886C10.2655 16.8067 10.6997 16.7756 10.8013 16.9595C10.9028 17.1407 11.2228 17.4022 11.0958 17.6585H11.0933Z" fill="#005231"/>
<path d="M10.1997 17.0756C10.1997 17.0756 10.1997 17.0238 10.1997 16.9772C10.1997 16.9228 10.2555 16.8866 10.3114 16.8995L10.6059 16.9772L10.3749 17.3345C10.3368 17.394 10.2606 17.4251 10.187 17.4148C10.187 17.4148 10.0397 17.3526 9.98636 17.3423C9.92288 17.3293 9.73497 17.3423 9.73497 17.3423L9.60547 16.9487L9.6207 16.8969C9.63086 16.8633 9.66387 16.8426 9.69942 16.8426H9.77052L9.78322 16.7649C9.7883 16.7338 9.82131 16.7131 9.85686 16.7209L10.0498 16.7623C10.0905 16.7727 10.1159 16.8089 10.1082 16.8452L10.0727 17.0212L10.2022 17.0756H10.1997Z" fill="#005231"/>
<path d="M9.99732 17.7027L9.67991 17.0166C9.6469 16.9467 9.55295 16.9182 9.48439 16.9597L9.33203 17.0529L9.44122 17.5759L9.99732 17.7027Z" fill="#005231"/>
<path d="M10.1389 17.6353L10.0779 17.7544L10.017 17.8839C9.99923 17.9175 9.9713 17.9434 9.93321 17.9564C9.85957 17.9849 9.71483 18.0366 9.53709 18.1014C9.24507 18.2049 8.85656 18.3344 8.49345 18.4328C8.09478 18.5415 7.72913 18.614 7.56662 18.57C7.23397 18.482 7.38633 18.0392 7.44981 17.7311C7.5717 17.1563 7.89164 16.8353 8.01099 16.7317C8.03892 16.7084 8.07447 16.6929 8.11256 16.6877L9.64881 16.5298C9.64881 16.5298 9.46599 16.8198 9.50407 17.1486C9.51169 17.2133 9.52693 17.2754 9.55486 17.3402C9.55486 17.3454 9.5574 17.3479 9.55994 17.3531C9.59041 17.4178 9.63866 17.4645 9.69198 17.4955C9.8164 17.5706 9.97892 17.5732 10.0805 17.5654C10.1211 17.5628 10.1516 17.6017 10.1364 17.6353H10.1389Z" fill="#005231"/>
<path d="M8.45392 20.1699C8.74085 20.2295 8.61135 20.8716 8.32442 20.812C8.03748 20.7525 8.16952 20.1104 8.45392 20.1699Z" fill="#005231"/>
<path d="M9.29068 18.6992L8.54922 20.509C8.53906 20.5349 8.53652 20.5608 8.5416 20.5893L8.54414 20.6022C8.54922 20.6333 8.57969 20.6592 8.6127 20.6643L8.76506 20.6876C8.80822 20.6928 8.85139 20.6695 8.86409 20.6307L9.43034 18.7458L9.29068 18.6992Z" fill="#005231"/>
<path d="M8.84846 20.4805C8.90432 20.4986 8.85354 20.6721 8.79767 20.6539C8.74181 20.6384 8.79259 20.4649 8.84846 20.4805Z" fill="#005231"/>
<path d="M7.63672 19.0331L7.92112 18.8596L8.36549 18.9865L8.47214 20.4312C8.47468 20.4649 8.50007 20.4934 8.53562 20.5011L8.59656 20.5141L9.32787 18.7664L8.02269 18.7354L7.63672 19.0331Z" fill="#005231"/>
<path d="M8.47397 20.4055C8.57808 20.4107 8.56792 20.5919 8.46381 20.5868C8.3597 20.579 8.36986 20.3977 8.47397 20.4055Z" fill="#005231"/>
<path d="M12.6916 16.8177C12.684 16.8979 12.6738 17.0378 12.6662 17.1206C12.6611 17.1646 12.6459 17.206 12.6154 17.2423L12.4453 17.4365C12.4732 17.3614 12.6053 17.0093 12.6459 16.8928C12.6764 16.8047 12.6205 16.7348 12.585 16.7012C12.6535 16.7219 12.6992 16.7607 12.6916 16.8203V16.8177Z" fill="#005231"/>
<path d="M10.0637 19.9499C10.0637 19.9499 9.85043 20.0095 9.83773 20.1519C9.82504 20.2943 9.79457 20.5092 9.58635 20.6438C9.37813 20.7785 9.34766 21.1176 9.34766 21.1176L10.856 20.6179C10.856 20.6179 11.3207 20.5195 11.4172 20.1855C11.4222 20.1726 11.4019 20.1622 11.3892 20.17L11.3384 20.2011L11.3511 20.0587L10.7189 19.805C10.7189 19.805 10.8661 19.7221 10.7874 19.3467L10.0637 19.9499Z" fill="#005231"/>
<path d="M10.9811 18.8466C10.9811 18.8466 10.5392 20.2085 9.97043 20.3535C9.97043 20.3535 10.1406 19.3644 9.61747 18.9605C9.17056 18.6162 8.6424 18.466 8.49512 18.4298C8.46973 18.4246 8.45703 18.4194 8.45703 18.4194L9.09439 18.1631C9.09439 18.1631 9.28229 18.1269 9.53876 18.0984C9.98059 18.0544 10.6332 18.0388 10.9328 18.2926C10.9963 18.3469 11.0318 18.4065 11.0496 18.466C11.108 18.655 10.9811 18.8466 10.9811 18.8466Z" fill="#005231"/>
<path d="M11.0538 18.4664C11.0361 18.4068 11.0005 18.3499 10.937 18.2955C10.6374 18.0418 9.9848 18.0573 9.54297 18.1013C9.72072 18.0392 9.86546 17.9848 9.93909 17.9563C9.97464 17.9434 10.0051 17.9175 10.0229 17.8838L10.0838 17.7544C10.2997 17.7648 10.6755 17.7803 10.7923 17.7855C10.8913 17.7906 10.9345 17.8347 10.9548 17.8709C10.937 17.9822 10.9243 18.1531 11.0081 18.2722C11.0741 18.368 11.0741 18.4276 11.0564 18.4664H11.0538Z" fill="#005231"/>
<path d="M6.88127 16.323L7.43991 16.3748C7.43991 16.3748 7.58211 16.3541 7.36627 16.0977C7.15043 15.8388 6.83303 15.7353 6.72638 15.8311C6.61973 15.9294 6.70606 16.1935 6.88127 16.323Z" fill="#005231"/>
<path d="M7.24473 16.2607L7.63577 16.284L7.63069 16.3514L7.24219 16.3281L7.24473 16.2607Z" fill="#005231"/>
<path d="M7.98421 17.0371L7.92327 17.0604L7.57031 16.307L7.63379 16.2837L7.98421 17.0371Z" fill="#005231"/>
<path d="M10.542 16.564L9.98084 16.5458C9.98084 16.5458 9.84118 16.5122 10.0875 16.2818C10.3338 16.0513 10.6588 15.984 10.7553 16.0928C10.8518 16.2015 10.735 16.4552 10.5446 16.564H10.542Z" fill="#005231"/>
<path d="M10.1893 16.5219L9.80078 16.4986L9.80332 16.4287L10.1944 16.452L10.1893 16.5219Z" fill="#005231"/>
<path d="M9.37109 17.1333L9.4295 17.1644L9.86879 16.4627L9.81039 16.4316L9.37109 17.1333Z" fill="#005231"/>
<path d="M12.3993 18.3741C12.6127 18.4325 12.6078 18.4513 12.3944 18.3929C12.181 18.3345 12.186 18.3158 12.3993 18.3741Z" stroke="#005231" stroke-width="0.171155" stroke-miterlimit="10"/>
<path d="M7.5297 17.6665C7.5297 17.6665 7.75316 17.8607 8.54033 17.8141L8.56572 18.1118C8.56572 18.1118 8.01724 18.4743 7.62111 18.363C7.43575 18.3112 7.36719 18.13 7.36719 18.13L7.4002 17.9435L7.52716 17.6691L7.5297 17.6665Z" fill="#FFF59C"/>
<path d="M11.0451 14.8289C11.2914 14.9583 10.9257 15.6833 10.6794 15.5538C10.4331 15.4244 10.7988 14.6994 11.0451 14.8289Z" fill="#005231"/>
<path d="M11.235 14.9656C11.235 14.9656 11.5117 14.163 10.9531 13.9404C10.3945 13.7151 9.91963 13.9766 9.90185 14.3598L9.88408 14.3753C9.86884 14.3883 9.86122 14.4116 9.86376 14.4323L9.91963 14.9708C9.9247 15.0045 9.93486 15.033 9.96025 15.0588L9.99073 15.0899C9.99073 15.0899 10.072 15.4705 10.3538 15.4653C10.8845 15.455 11.2375 14.9682 11.2375 14.9682L11.235 14.9656Z" fill="#005231"/>
<path d="M10.9365 14.9272C10.6927 15.0955 10.3093 15.2741 9.9817 15.0955V15.0903L9.94869 15.0592C9.92584 15.0333 9.9106 15.0048 9.90552 14.9712L9.8522 14.4326C9.84966 14.4145 9.85474 14.3938 9.86743 14.3809C9.87759 14.4145 9.93853 14.4663 10.2534 14.4715C10.5226 14.4741 10.812 14.4534 10.9999 14.4352C11.0177 14.5362 11.038 14.7615 10.9365 14.9272Z" fill="#048C55"/>
<path d="M11.1852 14.7176C11.1674 14.7435 11.0785 14.8341 10.9414 14.9273C11.0455 14.7616 11.0201 14.539 11.0023 14.4354C11.1293 14.4225 11.2131 14.4121 11.2131 14.4121C11.2131 14.4121 11.2334 14.6425 11.1826 14.7176H11.1852Z" fill="#005231"/>
<path d="M11.1635 14.4634C11.2041 14.466 11.1965 14.5903 11.1558 14.5877C11.1152 14.5851 11.1228 14.4608 11.1635 14.4634Z" fill="#005231"/>
<path d="M8.01562 17.0012L8.13243 16.6232C8.26447 16.24 8.54379 16.1209 9.07704 16.2555L9.69662 16.4989L8.95007 17.1203L8.01562 16.9986V17.0012Z" fill="#005231"/>
<path d="M11.4167 17.2337L10.4924 17.0137L10.4492 17.1638L11.3659 17.3943C11.4014 17.402 11.4345 17.3839 11.4421 17.3528L11.4548 17.2933C11.4598 17.2674 11.4421 17.2415 11.4167 17.2363V17.2337Z" fill="#005231"/>
<path d="M11.6985 15.8984C11.6985 15.8984 11.7315 16.2117 11.5106 16.6752C11.2897 17.1386 11.2313 17.0713 11.2313 17.0713L11.1958 17.1723L11.0688 17.1645L11.018 17.3199L10.8479 17.2758L10.8377 17.0868L10.7539 17.2008L10.7387 17.2862L10.6524 17.3432L10.6066 17.325L10.6219 17.2396L10.5559 17.2707L10.5508 17.0894L10.66 16.8875L10.9317 16.9211L11.1678 16.3645L11.2084 15.9942L11.696 15.8984H11.6985Z" fill="#005231"/>
<path d="M11.2109 16.0349C11.2109 16.0349 11.4446 15.9106 11.7442 15.9805L11.729 15.5093L11.1094 15.6258L11.2135 16.0297L11.2109 16.0349Z" fill="#005231"/>
<path d="M11.7004 15.9756L11.6953 16.0481L11.7715 15.9989C11.7715 15.9989 11.7537 15.9859 11.7004 15.9756Z" fill="#003F2B"/>
<path d="M8.06223 17.0486C8.22971 17.0101 8.39699 17.115 8.43563 17.2824C8.47415 17.45 8.36938 17.6173 8.20182 17.6558C8.03434 17.6942 7.86692 17.5895 7.82842 17.422C7.79008 17.2546 7.89489 17.0872 8.06223 17.0486Z" fill="#005231" stroke="#005231" stroke-width="0.0400794"/>
<path d="M8.24851 17.0632C8.27007 17.0718 8.28624 17.0846 8.29674 17.1004C8.30702 17.1159 8.31076 17.1333 8.31143 17.1504C8.31204 17.1675 8.30924 17.1856 8.30616 17.203C8.30286 17.2216 8.2992 17.2382 8.29618 17.2569C8.29043 17.2926 8.28914 17.3261 8.3027 17.3562C8.31613 17.386 8.34661 17.4169 8.41113 17.4428L8.42927 17.45L8.42201 17.4682C8.35814 17.6278 8.17668 17.7055 8.01705 17.6417C7.85758 17.5777 7.77971 17.3962 7.84355 17.2367L7.85081 17.2186L7.86985 17.2262C7.93429 17.252 7.9769 17.2502 8.00712 17.238C8.03786 17.2255 8.0599 17.2004 8.08039 17.1705C8.09107 17.155 8.09987 17.1404 8.11032 17.1247C8.12009 17.1099 8.13056 17.0949 8.14279 17.0829C8.15519 17.0709 8.17052 17.0613 8.18885 17.0572C8.20723 17.0531 8.2271 17.0547 8.24851 17.0632Z" fill="#005231" stroke="#005231" stroke-width="0.0400794"/>
</svg>
