<svg width="56" height="55" viewBox="0 0 56 55" fill="none" xmlns="http://www.w3.org/2000/svg">
<path d="M54.2742 21.1796L53.1155 9.5907C53.0786 9.22244 52.9155 8.87814 52.6538 8.61646L46.607 2.56965C46.3453 2.30787 46.0011 2.14474 45.6328 2.10797L34.0438 0.949129C31.3213 0.676441 28.6499 1.63037 26.7149 3.56527L2.7671 27.513C1.25283 29.0271 0.418945 31.0405 0.418945 33.1819C0.418945 35.3233 1.25283 37.3367 2.7671 38.8508L16.3725 52.4563C17.8868 53.9705 19.9 54.8044 22.0415 54.8044C24.1829 54.8044 26.1962 53.9705 27.7104 52.4563L51.6582 28.5086C53.5931 26.5736 54.5466 23.9023 54.2742 21.1796ZM43.9614 17.3088C42.2916 18.9786 39.5842 18.9786 37.9144 17.3088C36.2446 15.639 36.2446 12.9317 37.9144 11.2619C39.5842 9.59209 42.2916 9.59209 43.9614 11.2619C45.6312 12.9317 45.6312 15.639 43.9614 17.3088Z" fill="url(#paint0_linear_3297_2269)"/>
<path d="M33.6224 23.6897L34.4239 22.8882C35.0501 22.2621 35.0501 21.2469 34.4239 20.6207C33.7977 19.9945 32.7826 19.9945 32.1564 20.6207L31.2233 21.5538C31.077 21.4652 30.9271 21.3778 30.7699 21.2934C28.8469 20.2608 26.4799 20.4199 24.5923 21.7088C22.8661 22.8875 21.9313 24.7588 22.1529 26.5926C22.2643 27.5143 22.5291 28.5216 23.0031 29.774L17.2448 35.5323C16.6119 34.7599 16.3286 34.0809 16.0551 32.7723C15.8739 31.9055 15.0242 31.3501 14.1575 31.531C13.2907 31.7122 12.7348 32.5618 12.9161 33.4286C13.3505 35.5066 13.9564 36.6427 14.9699 37.8072L14.0157 38.7613C13.3896 39.3875 13.3896 40.4027 14.0157 41.0289C14.6419 41.6551 15.6571 41.6551 16.2833 41.0289L17.3382 39.9739C18.373 40.6296 19.5397 40.9982 20.7793 41.0506C20.8793 41.0549 20.9794 41.0569 21.0793 41.0569C22.5747 41.0569 24.0545 40.5857 25.2768 39.7154C26.4863 38.8539 27.3695 37.6369 27.7637 36.2882C28.2037 34.7824 28.0424 33.1617 27.2971 31.6015C27.1284 31.2485 26.9582 30.886 26.7919 30.5201L31.3073 26.0046C31.7367 26.7562 31.7399 27.3545 31.7394 27.3968C31.6838 28.2766 32.3493 29.037 33.2298 29.0975C34.1132 29.158 34.8787 28.4911 34.9393 27.6076C35.0028 26.6861 34.7201 25.162 33.6224 23.6897ZM24.4035 32.9839C25.5335 35.3493 23.9337 36.7349 23.4166 37.1033C22.4577 37.7862 21.0444 38.1105 19.7157 37.5965L24.3793 32.9329C24.3875 32.95 24.3953 32.9667 24.4035 32.9839ZM25.3366 26.2077C25.2604 25.577 25.6781 24.8505 26.4008 24.3571C27.0084 23.9421 27.9284 23.6519 28.8351 23.9421L25.5437 27.2335C25.4477 26.8728 25.3753 26.5279 25.3366 26.2077ZM41.3161 13.9074C40.6899 13.2812 40.6899 12.266 41.3161 11.6398L52.4119 0.54386C53.0381 -0.0823283 54.0533 -0.0823283 54.6795 0.54386C55.3057 1.17005 55.3057 2.18523 54.6795 2.81141L43.5837 13.9074C42.9575 14.5335 41.9423 14.5335 41.3161 13.9074Z" fill="url(#paint1_linear_3297_2269)"/>
<defs>
<linearGradient id="paint0_linear_3297_2269" x1="9.56987" y1="45.6535" x2="49.6303" y2="5.59305" gradientUnits="userSpaceOnUse">
<stop stop-color="#005231"/>
<stop offset="1" stop-color="#9CFFAC"/>
</linearGradient>
<linearGradient id="paint1_linear_3297_2269" x1="14.1047" y1="41.1177" x2="54.6791" y2="0.543331" gradientUnits="userSpaceOnUse">
<stop stop-color="#C3FFE8"/>
<stop offset="0.9973" stop-color="#F0FFF4"/>
</linearGradient>
</defs>
</svg>
