<svg width="55" height="56" viewBox="0 0 55 56" fill="none" xmlns="http://www.w3.org/2000/svg">
<g clip-path="url(#clip0_3297_2278)">
<path d="M27.955 26.7259C26.1809 26.3 25.9773 26.1309 25.9773 25.0786C25.9773 23.6834 28.027 22.9945 28.8632 24.1172C29.394 24.825 30.4009 24.969 31.1086 24.4366C31.8163 23.9058 31.9588 22.9005 31.428 22.1912C30.8578 21.4312 30.063 20.8942 29.1842 20.5795V18.6649C29.1842 17.7787 28.467 17.0615 27.5808 17.0615C26.6945 17.0615 25.9773 17.7787 25.9773 18.6649V20.5637C24.115 21.2277 22.7705 22.991 22.7705 25.0786C22.7705 28.7787 25.5468 29.4457 27.2065 29.845C28.9807 30.2709 29.1842 30.44 29.1842 31.4923C29.1842 32.3769 28.4654 33.0957 27.5808 33.0957C27.0718 33.0957 26.6036 32.8624 26.2983 32.4537C25.7675 31.7459 24.7654 31.6066 24.0529 32.1343C23.3452 32.6651 23.2027 33.6704 23.7335 34.3797C24.3037 35.1397 25.0986 35.6767 25.9773 35.9914V37.906C25.9773 38.7922 26.6945 39.5094 27.5808 39.5094C28.467 39.5094 29.1842 38.7922 29.1842 37.906V36.0072C31.0465 35.3432 32.391 33.5799 32.391 31.4923C32.391 27.7922 29.6148 27.1252 27.955 26.7259Z" fill="url(#paint0_linear_3297_2278)"/>
<path d="M54.9497 28.3923C54.9497 14.7335 44.7609 3.11185 31.2492 1.35964C30.4225 1.24377 29.6849 1.7699 29.4877 2.5606L27.9109 8.86941C27.6726 9.81607 28.3343 10.7653 29.3233 10.8549C38.449 11.666 45.3292 19.2056 45.3292 28.3923C45.3292 34.3065 42.3572 39.8041 37.4859 43.0548L35.3877 40.2582C34.5866 39.1856 32.876 39.5154 32.5504 40.8313L29.3436 53.6586C29.0898 54.6671 29.8546 55.6504 30.8985 55.6504H43.7258C45.0485 55.6504 45.7982 54.1366 45.0082 53.0856L43.2748 50.7728C50.6186 45.6714 54.9497 37.4287 54.9497 28.3923ZM25.8462 45.716C16.7205 44.9048 9.84023 37.3652 9.84023 28.1785C9.84023 22.2644 12.8122 16.7667 17.6835 13.516L19.7817 16.3126C20.5759 17.3727 22.291 17.0658 22.619 15.7395L25.8259 2.91218C26.0797 1.90373 25.3148 0.92041 24.271 0.92041H11.4437C10.1209 0.92041 9.37129 2.43425 10.1612 3.48524L11.8946 5.79801C4.55088 10.8994 0.219727 19.1421 0.219727 28.1785C0.219727 41.8373 10.4086 53.459 23.9203 55.2112C24.7183 55.3176 25.483 54.8075 25.6818 54.0102L27.2586 47.7014C27.4969 46.7547 26.8352 45.8055 25.8462 45.716Z" fill="url(#paint1_linear_3297_2278)"/>
</g>
<defs>
<linearGradient id="paint0_linear_3297_2278" x1="27.5808" y1="39.5094" x2="27.5808" y2="17.0615" gradientUnits="userSpaceOnUse">
<stop stop-color="#C3FFE8"/>
<stop offset="0.9973" stop-color="#F0FFF4"/>
</linearGradient>
<linearGradient id="paint1_linear_3297_2278" x1="27.5847" y1="55.6504" x2="27.5847" y2="0.92041" gradientUnits="userSpaceOnUse">
<stop stop-color="#005231"/>
<stop offset="1" stop-color="#9CFFAC"/>
</linearGradient>
<clipPath id="clip0_3297_2278">
<rect width="54.73" height="54.73" fill="white" transform="translate(0.209961 0.920898)"/>
</clipPath>
</defs>
</svg>
