<svg width="38" height="17" viewBox="0 0 38 17" fill="none" xmlns="http://www.w3.org/2000/svg">
<path d="M16.7693 13.7736C16.7346 13.1295 16.4295 12.5223 15.9172 12.0776C15.4048 11.6329 14.7244 11.3849 14.017 11.3849C13.3095 11.3849 12.6292 11.6329 12.1168 12.0776C11.6044 12.5223 11.2993 13.1295 11.2646 13.7736C11.2551 14.1035 11.3169 14.4318 11.4465 14.7399C11.5762 15.048 11.7711 15.3298 12.0202 15.5692C12.2693 15.8086 12.5678 16.0009 12.8984 16.1352C13.2291 16.2695 13.5855 16.3431 13.9474 16.3518C14.6783 16.3694 15.3869 16.1217 15.9173 15.6631C16.4478 15.2045 16.7566 14.5726 16.7759 13.9064C16.7759 13.8702 16.7759 13.8219 16.7693 13.7736ZM13.4904 14.8484C13.3129 14.771 13.1623 14.6507 13.0548 14.5005C12.9473 14.3504 12.8872 14.1762 12.8809 13.997C12.8717 13.9228 12.8717 13.8478 12.8809 13.7736C12.9172 13.5256 13.051 13.298 13.2576 13.1332C13.4641 12.9684 13.7292 12.8776 14.0037 12.8776C14.2782 12.8776 14.5434 12.9684 14.7499 13.1332C14.9564 13.298 15.0903 13.5256 15.1265 13.7736C15.1313 13.8218 15.1313 13.8703 15.1265 13.9185C15.1239 14.0934 15.0731 14.265 14.9788 14.4173C14.8846 14.5697 14.7498 14.6981 14.587 14.7906C14.4241 14.8832 14.2383 14.937 14.0467 14.9471C13.8551 14.9571 13.6638 14.9232 13.4904 14.8484ZM34.2836 13.7736C34.249 13.1295 33.9439 12.5223 33.4315 12.0776C32.9191 11.6329 32.2388 11.3849 31.5313 11.3849C30.8238 11.3849 30.1435 11.6329 29.6311 12.0776C29.1187 12.5223 28.8136 13.1295 28.779 13.7736C28.7694 14.1035 28.8312 14.4318 28.9608 14.7399C29.0905 15.048 29.2854 15.3298 29.5345 15.5692C29.7837 15.8086 30.0821 16.0009 30.4127 16.1352C30.7434 16.2695 31.0999 16.3431 31.4617 16.3518C32.1926 16.3694 32.9012 16.1217 33.4316 15.6631C33.9621 15.2045 34.2709 14.5726 34.2903 13.9064C34.2903 13.8702 34.2903 13.8219 34.2836 13.7736ZM31.0047 14.8484C30.8273 14.771 30.6766 14.6507 30.5691 14.5005C30.4616 14.3504 30.4015 14.1762 30.3953 13.997C30.386 13.9228 30.386 13.8478 30.3953 13.7736C30.4315 13.5256 30.5654 13.298 30.7719 13.1332C30.9784 12.9684 31.2436 12.8776 31.518 12.8776C31.7925 12.8776 32.0577 12.9684 32.2642 13.1332C32.4707 13.298 32.6046 13.5256 32.6408 13.7736C32.6456 13.8218 32.6456 13.8703 32.6408 13.9185C32.6382 14.0934 32.5874 14.265 32.4932 14.4173C32.3989 14.5697 32.2641 14.6981 32.1013 14.7906C31.9384 14.8832 31.7527 14.937 31.5611 14.9471C31.3695 14.9571 31.1781 14.9232 31.0047 14.8484ZM14.7953 5.53174C14.6231 6.0349 14.4177 6.54813 14.1793 7.07143H14.7953C14.7668 6.55853 14.7668 6.04464 14.7953 5.53174Z" fill="white"/>
<path d="M37.1026 8.08617L35.3207 5.91249C35.1449 5.69256 34.9148 5.51346 34.649 5.38968C34.3831 5.2659 34.089 5.20092 33.7905 5.20001H31.4721C31.4254 5.20001 31.3792 5.19154 31.3362 5.17508C31.2931 5.15862 31.2541 5.13451 31.2214 5.10415C31.1888 5.07379 31.163 5.0378 31.1458 4.99827C31.1285 4.95875 31.1201 4.91648 31.121 4.87395L31.1806 2.73046C31.2139 2.48783 31.1914 2.24155 31.1146 2.00726C31.0378 1.77298 30.9084 1.55581 30.7346 1.36956C30.5608 1.18331 30.3464 1.03205 30.105 0.925388C29.8636 0.818728 29.6005 0.759 29.3325 0.75H9.57917C9.10133 0.761352 8.64557 0.935798 8.30209 1.23882C7.95862 1.54183 7.75245 1.95134 7.7244 2.3863L7.61179 3.55163H4.78326C4.61639 3.55114 4.45546 3.60809 4.33265 3.71107C4.20984 3.81406 4.1342 3.9555 4.12085 4.10713C4.12085 4.26726 4.19064 4.42084 4.31486 4.53408C4.43909 4.64731 4.60758 4.71093 4.78326 4.71093H7.43293L7.28058 6.32307H3.16034C2.99346 6.32259 2.83253 6.37953 2.70972 6.48251C2.58691 6.5855 2.51127 6.72695 2.49792 6.87857C2.49792 7.03871 2.56771 7.19229 2.69194 7.30552C2.81617 7.41875 2.98466 7.48237 3.16034 7.48237H7.20109L7.0951 9.2032H1.53742C1.37054 9.20271 1.20961 9.25965 1.0868 9.36264C0.96399 9.46563 0.888349 9.60707 0.875 9.75869C0.875 9.91883 0.94479 10.0724 1.06902 10.1856C1.19325 10.2989 1.36173 10.3625 1.53742 10.3625H6.93612L6.6844 13.0253C6.67343 13.1132 6.68202 13.2022 6.70966 13.287C6.7373 13.3718 6.78341 13.4507 6.84525 13.5189C6.90709 13.5871 6.98337 13.6432 7.06955 13.6839C7.15573 13.7247 7.25003 13.7491 7.34682 13.7558H10.0561C10.1445 13.7563 10.2299 13.727 10.296 13.6735C10.362 13.62 10.404 13.5461 10.4138 13.466C10.5311 12.6868 10.954 11.9726 11.6043 11.4556C12.2545 10.9386 13.0882 10.6538 13.9511 10.6538C14.814 10.6538 15.6477 10.9386 16.298 11.4556C16.9483 11.9726 17.3712 12.6868 17.4884 13.466C17.4996 13.5456 17.542 13.6187 17.6078 13.672C17.6735 13.7253 17.7582 13.755 17.8461 13.7558H27.6499C27.7383 13.7563 27.8237 13.727 27.8898 13.6735C27.9558 13.62 27.9978 13.5461 28.0076 13.466C28.1249 12.6868 28.5478 11.9726 29.1981 11.4556C29.8484 10.9386 30.682 10.6538 31.5449 10.6538C32.4078 10.6538 33.2415 10.9386 33.8918 11.4556C34.5421 11.9726 34.965 12.6868 35.0822 13.466C35.0934 13.5456 35.1358 13.6187 35.2016 13.672C35.2673 13.7253 35.352 13.755 35.4399 13.7558H37.0033C37.0763 13.7535 37.1482 13.7381 37.2147 13.7104C37.2813 13.6827 37.3412 13.6434 37.391 13.5946C37.4408 13.5458 37.4796 13.4885 37.5052 13.4261C37.5307 13.3636 37.5425 13.2972 37.5398 13.2305V9.28773C37.5403 8.85468 37.3869 8.43313 37.1026 8.08617ZM11.626 8.33373H10.7318L11.4671 4.71093H13.2953L13.1363 5.48983H12.209L12.0765 6.15401H12.8913L12.7389 6.90876H11.9307L11.626 8.33373ZM14.8719 8.33373V7.72993H13.918L13.6398 8.33373H12.6925L14.4877 4.71093H15.5012L15.8191 8.33373H14.8719ZM18.6079 5.5804C18.4276 5.46617 18.2174 5.39743 17.9985 5.38115C17.8996 5.3772 17.802 5.40262 17.7203 5.4536C17.6834 5.47777 17.6521 5.50835 17.6282 5.54358C17.6044 5.57881 17.5884 5.618 17.5812 5.65889C17.5503 5.81186 17.6651 5.98293 17.9256 6.17212C18.1039 6.30714 18.2561 6.46836 18.3761 6.64913C18.52 6.85973 18.5675 7.11336 18.5086 7.35557C18.448 7.66455 18.2639 7.94208 17.9919 8.13447C17.7548 8.30549 17.4685 8.4102 17.1675 8.43592C16.8666 8.46164 16.5639 8.40726 16.2961 8.27938L16.4683 7.43406C16.6612 7.56562 16.8907 7.64513 17.1307 7.66351C17.2336 7.66679 17.3345 7.63685 17.4156 7.57898C17.4937 7.52164 17.5457 7.43985 17.5613 7.34953C17.5764 7.27898 17.5623 7.20581 17.5216 7.14424C17.4594 7.05798 17.3835 6.98065 17.2963 6.9148C17.0714 6.74673 16.8827 6.54198 16.7399 6.311C16.6415 6.12321 16.6113 5.91169 16.6538 5.7072C16.7093 5.40715 16.8809 5.13514 17.1374 4.94037C17.3867 4.74282 17.708 4.6373 18.0382 4.64451C18.2905 4.6442 18.5396 4.6958 18.7669 4.79546L18.6079 5.5804ZM21.3768 5.55021H20.7542L20.1845 8.35184H19.2703L19.84 5.55021H19.2173L19.3829 4.723H21.5424L21.3768 5.55021ZM25.3513 6.8363C25.2809 7.42277 25.0851 7.99098 24.775 8.50883C24.4606 9.03107 24.0376 9.4925 23.5297 9.86738C23.4128 9.95367 23.2781 10.0179 23.1337 10.0562C22.9893 10.0946 22.8379 10.1063 22.6884 10.0908H22.6089C22.3984 10.0531 22.2039 9.96193 22.0477 9.82789C21.8915 9.69385 21.78 9.52234 21.7261 9.33309C21.6721 9.14385 21.6778 8.94455 21.7426 8.75815C21.8074 8.57174 21.9286 8.40579 22.0922 8.27938L22.1651 8.23108C22.4679 8.04294 22.7268 7.80202 22.9269 7.52222C23.127 7.24241 23.2643 6.92926 23.331 6.60082C23.4484 5.90731 23.2835 5.19859 22.8673 4.60828C22.5183 4.07601 22.0198 3.63829 21.4232 3.3403C20.3037 2.79511 18.9977 2.66116 17.7733 2.96595C18.2372 2.62288 18.7706 2.36642 19.3432 2.2112C19.925 2.05431 20.5349 2.00303 21.1384 2.06025C21.7488 2.12063 22.3406 2.2888 22.8805 2.55536C23.4254 2.82845 23.9069 3.19553 24.2981 3.63616C24.6908 4.06787 24.9898 4.56376 25.1791 5.09736C25.3653 5.65412 25.4306 6.23865 25.3712 6.81819L25.3513 6.8363ZM35.6585 8.76242H31.6642C31.5886 8.76242 31.5162 8.73507 31.4628 8.68638C31.4093 8.63769 31.3793 8.57165 31.3793 8.50279V6.72762C31.3793 6.63634 31.4191 6.5488 31.4899 6.48426C31.5607 6.41971 31.6568 6.38345 31.7569 6.38345H33.7905C33.8497 6.38322 33.9081 6.39566 33.961 6.41978C34.014 6.44391 34.0599 6.47903 34.0952 6.52233L35.7778 8.5994C35.7839 8.61488 35.7861 8.63143 35.7842 8.64779C35.7823 8.66415 35.7763 8.6799 35.7667 8.69386C35.7572 8.70781 35.7442 8.7196 35.7289 8.72834C35.7136 8.73708 35.6964 8.74254 35.6784 8.74431L35.6585 8.76242Z" fill="white"/>
</svg>
