<svg width="16" height="19" viewBox="0 0 16 19" fill="none" xmlns="http://www.w3.org/2000/svg">
<path d="M4.53195 1.12956C4.53195 0.962594 4.59828 0.802461 4.71635 0.684395C4.83441 0.566329 4.99455 0.5 5.16152 0.5H10.198C10.365 0.5 10.5251 0.566329 10.6432 0.684395C10.7613 0.802461 10.8276 0.962594 10.8276 1.12956C10.8276 1.29654 10.7613 1.45667 10.6432 1.57473C10.5251 1.6928 10.365 1.75913 10.198 1.75913H5.16152C4.99455 1.75913 4.83441 1.6928 4.71635 1.57473C4.59828 1.45667 4.53195 1.29654 4.53195 1.12956ZM7.67978 18.1278C9.68343 18.1278 11.605 17.3319 13.0218 15.9151C14.4386 14.4983 15.2346 12.5767 15.2346 10.573C15.2346 8.56938 14.4386 6.6478 13.0218 5.231C11.605 3.81421 9.68343 3.01826 7.67978 3.01826C5.67612 3.01826 3.75454 3.81421 2.33774 5.231C0.920947 6.6478 0.125 8.56938 0.125 10.573C0.125 12.5767 0.920947 14.4983 2.33774 15.9151C3.75454 17.3319 5.67612 18.1278 7.67978 18.1278ZM7.67978 5.53652C7.84675 5.53652 8.00688 5.60285 8.12495 5.72091C8.24301 5.83898 8.30934 5.99911 8.30934 6.16608V11.2026C8.30934 11.3696 8.24301 11.5297 8.12495 11.6478C8.00688 11.7658 7.84675 11.8322 7.67978 11.8322C7.5128 11.8322 7.35267 11.7658 7.23461 11.6478C7.11654 11.5297 7.05021 11.3696 7.05021 11.2026V6.16608C7.05021 5.99911 7.11654 5.83898 7.23461 5.72091C7.35267 5.60285 7.5128 5.53652 7.67978 5.53652ZM13.9162 2.56749C13.8582 2.50736 13.7887 2.4594 13.7119 2.4264C13.6351 2.39341 13.5525 2.37604 13.4689 2.37532C13.3853 2.37459 13.3024 2.39052 13.225 2.42217C13.1476 2.45383 13.0773 2.50058 13.0182 2.55969C12.9591 2.6188 12.9124 2.68909 12.8807 2.76646C12.8491 2.84383 12.8331 2.92673 12.8339 3.01033C12.8346 3.09392 12.852 3.17653 12.885 3.25334C12.9179 3.33015 12.9659 3.39962 13.026 3.45769L14.7926 5.22425C14.8507 5.28438 14.9201 5.33234 14.997 5.36534C15.0738 5.39833 15.1564 5.4157 15.24 5.41643C15.3236 5.41715 15.4065 5.40123 15.4838 5.36957C15.5612 5.33791 15.6315 5.29117 15.6906 5.23206C15.7497 5.17294 15.7965 5.10265 15.8281 5.02528C15.8598 4.94791 15.8757 4.86501 15.875 4.78142C15.8742 4.69782 15.8569 4.61521 15.8239 4.5384C15.7909 4.46159 15.7429 4.39212 15.6828 4.33405L13.9162 2.56749Z" fill="white"/>
</svg>
